M48
; DRILL file {KiCad 8.0.8} date 2025-07-16T13:43:27+0700
; FORMAT={-:-/ absolute / inch / decimal}
; #@! TF.CreationDate,2025-07-16T13:43:27+07:00
; #@! TF.GenerationSoftware,Kicad,Pcbnew,8.0.8
; #@! TF.FileFunction,MixedPlating,1,2
FMAT,2
INCH
; #@! TA.AperFunction,Plated,PTH,ViaDrill
T1C0.0118
; #@! TA.AperFunction,Plated,PTH,ComponentDrill
T2C0.0236
; #@! TA.AperFunction,Plated,PTH,ComponentDrill
T3C0.0394
; #@! TA.AperFunction,Plated,PTH,ComponentDrill
T4C0.1181
; #@! TA.AperFunction,NonPlated,NPTH,ComponentDrill
T5C0.0256
%
G90
G05
T1
X3.6102Y-3.1142
X3.6496Y-3.1142
X3.6929Y-3.1142
X3.7323Y-3.1142
X3.7795Y-3.6102
X3.8031Y-2.7894
X3.812Y-3.6102
X3.8504Y-2.7894
X3.8976Y-2.7894
X3.9449Y-2.7894
X4.0454Y-2.9834
X4.0551Y-3.3819
X4.0945Y-3.3819
X4.2047Y-3.3366
X4.2441Y-3.3366
X4.3445Y-3.2402
X4.3445Y-3.2657
X4.3661Y-2.8228
X4.3661Y-2.8543
X4.372Y-3.2402
X4.372Y-3.2657
X4.4016Y-2.8228
X4.4016Y-2.8543
X4.4173Y-3.0581
X4.4252Y-3.1024
X4.4331Y-2.75
X4.4409Y-3.0
X4.4646Y-2.8228
X4.5Y-2.8228
X4.5276Y-3.0394
X4.5276Y-3.0787
X4.5541Y-3.1417
X4.5541Y-3.1811
X4.6339Y-3.0846
X4.6339Y-3.124
X4.6713Y-3.0846
X4.6713Y-3.124
X4.6929Y-3.3661
X4.6929Y-3.4055
X4.7244Y-2.874
X4.7252Y-3.0728
X4.7638Y-2.874
X4.7646Y-3.0728
X4.8012Y-2.7669
X4.8031Y-2.9528
X4.8098Y-3.1343
X4.8098Y-3.1764
X4.8366Y-2.7669
X4.8425Y-2.9528
X4.8492Y-3.1343
X4.8492Y-3.1764
X4.877Y-3.7057
X4.8819Y-2.9528
X4.8886Y-3.1343
X4.8886Y-3.1764
X4.8976Y-3.5059
X4.9144Y-3.7057
X4.9528Y-3.1378
X4.9528Y-3.1772
X4.9921Y-3.1378
X4.9921Y-3.1772
X5.0118Y-3.4685
X5.0315Y-3.1378
X5.0315Y-3.1772
X5.0709Y-3.1378
X5.0709Y-3.1772
X5.0925Y-3.3819
X5.0925Y-3.4213
X5.0925Y-3.4606
X5.0925Y-3.5
X5.0925Y-3.5394
X5.0925Y-3.5787
T3
X3.2776Y-2.9498
X3.2776Y-3.0498
X3.2776Y-3.1498
X3.2776Y-3.2498
X3.2776Y-3.3498
T4
X3.3268Y-2.5669
X3.3268Y-3.8346
X5.1772Y-2.5669
X5.1772Y-3.8346
T5
X5.0087Y-3.3646
X5.0087Y-3.5921
T2
G00X4.9673Y-3.3083
M15
G01X5.0106Y-3.3083
M16
G05
G00X4.9673Y-3.6484
M15
G01X5.0106Y-3.6484
M16
G05
G00X5.1378Y-3.3083
M15
G01X5.1693Y-3.3083
M16
G05
G00X5.1378Y-3.6484
M15
G01X5.1693Y-3.6484
M16
G05
M30
