G04 #@! TF.GenerationSoftware,KiCad,Pcbnew,8.0.8*
G04 #@! TF.CreationDate,2025-07-16T13:43:26+07:00*
G04 #@! TF.ProjectId,USBC_Prog_A7677S_V1.1,55534243-5f50-4726-9f67-5f4137363737,rev?*
G04 #@! TF.SameCoordinates,Original*
G04 #@! TF.FileFunction,Copper,L1,Top*
G04 #@! TF.FilePolarity,Positive*
%FSLAX46Y46*%
G04 Gerber Fmt 4.6, Leading zero omitted, Abs format (unit mm)*
G04 Created by KiCad (PCBNEW 8.0.8) date 2025-07-16 13:43:26*
%MOMM*%
%LPD*%
G01*
G04 APERTURE LIST*
G04 Aperture macros list*
%AMRoundRect*
0 Rectangle with rounded corners*
0 $1 Rounding radius*
0 $2 $3 $4 $5 $6 $7 $8 $9 X,Y pos of 4 corners*
0 Add a 4 corners polygon primitive as box body*
4,1,4,$2,$3,$4,$5,$6,$7,$8,$9,$2,$3,0*
0 Add four circle primitives for the rounded corners*
1,1,$1+$1,$2,$3*
1,1,$1+$1,$4,$5*
1,1,$1+$1,$6,$7*
1,1,$1+$1,$8,$9*
0 Add four rect primitives between the rounded corners*
20,1,$1+$1,$2,$3,$4,$5,0*
20,1,$1+$1,$4,$5,$6,$7,0*
20,1,$1+$1,$6,$7,$8,$9,0*
20,1,$1+$1,$8,$9,$2,$3,0*%
G04 Aperture macros list end*
G04 #@! TA.AperFunction,ComponentPad*
%ADD10C,6.000000*%
G04 #@! TD*
G04 #@! TA.AperFunction,SMDPad,CuDef*
%ADD11RoundRect,0.200000X0.275000X-0.200000X0.275000X0.200000X-0.275000X0.200000X-0.275000X-0.200000X0*%
G04 #@! TD*
G04 #@! TA.AperFunction,SMDPad,CuDef*
%ADD12RoundRect,0.225000X0.250000X-0.225000X0.250000X0.225000X-0.250000X0.225000X-0.250000X-0.225000X0*%
G04 #@! TD*
G04 #@! TA.AperFunction,SMDPad,CuDef*
%ADD13RoundRect,0.250000X0.475000X-0.250000X0.475000X0.250000X-0.475000X0.250000X-0.475000X-0.250000X0*%
G04 #@! TD*
G04 #@! TA.AperFunction,SMDPad,CuDef*
%ADD14RoundRect,0.140000X0.140000X0.170000X-0.140000X0.170000X-0.140000X-0.170000X0.140000X-0.170000X0*%
G04 #@! TD*
G04 #@! TA.AperFunction,SMDPad,CuDef*
%ADD15RoundRect,0.250000X0.250000X-0.250000X0.250000X0.250000X-0.250000X0.250000X-0.250000X-0.250000X0*%
G04 #@! TD*
G04 #@! TA.AperFunction,SMDPad,CuDef*
%ADD16RoundRect,0.250000X-0.625000X0.375000X-0.625000X-0.375000X0.625000X-0.375000X0.625000X0.375000X0*%
G04 #@! TD*
G04 #@! TA.AperFunction,SMDPad,CuDef*
%ADD17RoundRect,0.135000X0.135000X0.185000X-0.135000X0.185000X-0.135000X-0.185000X0.135000X-0.185000X0*%
G04 #@! TD*
G04 #@! TA.AperFunction,SMDPad,CuDef*
%ADD18RoundRect,0.150000X0.587500X0.150000X-0.587500X0.150000X-0.587500X-0.150000X0.587500X-0.150000X0*%
G04 #@! TD*
G04 #@! TA.AperFunction,SMDPad,CuDef*
%ADD19RoundRect,0.135000X-0.135000X-0.185000X0.135000X-0.185000X0.135000X0.185000X-0.135000X0.185000X0*%
G04 #@! TD*
G04 #@! TA.AperFunction,SMDPad,CuDef*
%ADD20RoundRect,0.250000X-0.600000X-2.600000X0.600000X-2.600000X0.600000X2.600000X-0.600000X2.600000X0*%
G04 #@! TD*
G04 #@! TA.AperFunction,ComponentPad*
%ADD21R,1.700000X1.700000*%
G04 #@! TD*
G04 #@! TA.AperFunction,ComponentPad*
%ADD22O,1.700000X1.700000*%
G04 #@! TD*
G04 #@! TA.AperFunction,SMDPad,CuDef*
%ADD23RoundRect,0.225000X-0.250000X0.225000X-0.250000X-0.225000X0.250000X-0.225000X0.250000X0.225000X0*%
G04 #@! TD*
G04 #@! TA.AperFunction,SMDPad,CuDef*
%ADD24RoundRect,0.140000X-0.140000X-0.170000X0.140000X-0.170000X0.140000X0.170000X-0.140000X0.170000X0*%
G04 #@! TD*
G04 #@! TA.AperFunction,SMDPad,CuDef*
%ADD25C,4.000000*%
G04 #@! TD*
G04 #@! TA.AperFunction,SMDPad,CuDef*
%ADD26RoundRect,0.150000X-0.587500X-0.150000X0.587500X-0.150000X0.587500X0.150000X-0.587500X0.150000X0*%
G04 #@! TD*
G04 #@! TA.AperFunction,SMDPad,CuDef*
%ADD27RoundRect,0.150000X0.512500X0.150000X-0.512500X0.150000X-0.512500X-0.150000X0.512500X-0.150000X0*%
G04 #@! TD*
G04 #@! TA.AperFunction,SMDPad,CuDef*
%ADD28RoundRect,0.225000X-0.225000X-0.375000X0.225000X-0.375000X0.225000X0.375000X-0.225000X0.375000X0*%
G04 #@! TD*
G04 #@! TA.AperFunction,SMDPad,CuDef*
%ADD29RoundRect,0.250000X-1.000000X-0.900000X1.000000X-0.900000X1.000000X0.900000X-1.000000X0.900000X0*%
G04 #@! TD*
G04 #@! TA.AperFunction,SMDPad,CuDef*
%ADD30RoundRect,0.200000X-0.275000X0.200000X-0.275000X-0.200000X0.275000X-0.200000X0.275000X0.200000X0*%
G04 #@! TD*
G04 #@! TA.AperFunction,SMDPad,CuDef*
%ADD31RoundRect,0.250000X-1.025000X0.875000X-1.025000X-0.875000X1.025000X-0.875000X1.025000X0.875000X0*%
G04 #@! TD*
G04 #@! TA.AperFunction,ComponentPad*
%ADD32O,1.800000X1.000000*%
G04 #@! TD*
G04 #@! TA.AperFunction,ComponentPad*
%ADD33O,2.100000X1.000000*%
G04 #@! TD*
G04 #@! TA.AperFunction,SMDPad,CuDef*
%ADD34R,1.150000X0.300000*%
G04 #@! TD*
G04 #@! TA.AperFunction,SMDPad,CuDef*
%ADD35R,1.150000X0.600000*%
G04 #@! TD*
G04 #@! TA.AperFunction,SMDPad,CuDef*
%ADD36RoundRect,0.250000X-0.250000X0.250000X-0.250000X-0.250000X0.250000X-0.250000X0.250000X0.250000X0*%
G04 #@! TD*
G04 #@! TA.AperFunction,SMDPad,CuDef*
%ADD37RoundRect,0.250000X0.250000X0.475000X-0.250000X0.475000X-0.250000X-0.475000X0.250000X-0.475000X0*%
G04 #@! TD*
G04 #@! TA.AperFunction,SMDPad,CuDef*
%ADD38RoundRect,0.200000X-0.200000X-0.275000X0.200000X-0.275000X0.200000X0.275000X-0.200000X0.275000X0*%
G04 #@! TD*
G04 #@! TA.AperFunction,SMDPad,CuDef*
%ADD39RoundRect,0.250000X-0.250000X-0.250000X0.250000X-0.250000X0.250000X0.250000X-0.250000X0.250000X0*%
G04 #@! TD*
G04 #@! TA.AperFunction,SMDPad,CuDef*
%ADD40RoundRect,0.250000X0.375000X0.625000X-0.375000X0.625000X-0.375000X-0.625000X0.375000X-0.625000X0*%
G04 #@! TD*
G04 #@! TA.AperFunction,SMDPad,CuDef*
%ADD41RoundRect,0.250000X0.250000X0.250000X-0.250000X0.250000X-0.250000X-0.250000X0.250000X-0.250000X0*%
G04 #@! TD*
G04 #@! TA.AperFunction,ViaPad*
%ADD42C,0.600000*%
G04 #@! TD*
G04 #@! TA.AperFunction,Conductor*
%ADD43C,0.500000*%
G04 #@! TD*
G04 #@! TA.AperFunction,Conductor*
%ADD44C,0.200000*%
G04 #@! TD*
G04 #@! TA.AperFunction,Conductor*
%ADD45C,0.300000*%
G04 #@! TD*
G04 #@! TA.AperFunction,Conductor*
%ADD46C,0.250000*%
G04 #@! TD*
G04 APERTURE END LIST*
D10*
G04 #@! TO.P,TP6,1,1*
G04 #@! TO.N,unconnected-(TP6-Pad1)*
X131500000Y-97400000D03*
G04 #@! TD*
G04 #@! TO.P,TP5,1,1*
G04 #@! TO.N,unconnected-(TP5-Pad1)*
X131500000Y-65200000D03*
G04 #@! TD*
G04 #@! TO.P,TP4,1,1*
G04 #@! TO.N,unconnected-(TP4-Pad1)*
X84500000Y-97400000D03*
G04 #@! TD*
G04 #@! TO.P,TP3,1,1*
G04 #@! TO.N,unconnected-(TP3-Pad1)*
X84500000Y-65200000D03*
G04 #@! TD*
D11*
G04 #@! TO.P,R40,1*
G04 #@! TO.N,Net-(D14-A)*
X119075000Y-84125000D03*
G04 #@! TO.P,R40,2*
G04 #@! TO.N,Net-(Q12-G)*
X119075000Y-82475000D03*
G04 #@! TD*
G04 #@! TO.P,R4,1*
G04 #@! TO.N,Net-(D3-A)*
X106250000Y-87575000D03*
G04 #@! TO.P,R4,2*
G04 #@! TO.N,GND*
X106250000Y-85925000D03*
G04 #@! TD*
D12*
G04 #@! TO.P,C41,1*
G04 #@! TO.N,VBUS*
X121200000Y-91075000D03*
G04 #@! TO.P,C41,2*
G04 #@! TO.N,GND*
X121200000Y-89525000D03*
G04 #@! TD*
D13*
G04 #@! TO.P,C40,1*
G04 #@! TO.N,VLTE*
X100050000Y-74100000D03*
G04 #@! TO.P,C40,2*
G04 #@! TO.N,GND*
X100050000Y-72200000D03*
G04 #@! TD*
D14*
G04 #@! TO.P,C37,1*
G04 #@! TO.N,Net-(D2-K)*
X112055000Y-76950000D03*
G04 #@! TO.P,C37,2*
G04 #@! TO.N,Net-(U3-SW)*
X111095000Y-76950000D03*
G04 #@! TD*
G04 #@! TO.P,C36,1*
G04 #@! TO.N,VIN+*
X116380000Y-75500000D03*
G04 #@! TO.P,C36,2*
G04 #@! TO.N,GND*
X115420000Y-75500000D03*
G04 #@! TD*
D15*
G04 #@! TO.P,D4,1,K*
G04 #@! TO.N,Net-(D3-K)*
X108400000Y-91550000D03*
G04 #@! TO.P,D4,2,A*
G04 #@! TO.N,Net-(D4-A)*
X108400000Y-89050000D03*
G04 #@! TD*
D12*
G04 #@! TO.P,C1,1*
G04 #@! TO.N,VBUS*
X119640000Y-91090000D03*
G04 #@! TO.P,C1,2*
G04 #@! TO.N,GND*
X119640000Y-89540000D03*
G04 #@! TD*
D16*
G04 #@! TO.P,F2,1*
G04 #@! TO.N,Net-(D6-K)*
X120210000Y-74120000D03*
G04 #@! TO.P,F2,2*
G04 #@! TO.N,Net-(D14-K)*
X120210000Y-76920000D03*
G04 #@! TD*
D13*
G04 #@! TO.P,C34,1*
G04 #@! TO.N,VIN+*
X115800000Y-74100000D03*
G04 #@! TO.P,C34,2*
G04 #@! TO.N,GND*
X115800000Y-72200000D03*
G04 #@! TD*
D17*
G04 #@! TO.P,R26,1*
G04 #@! TO.N,Net-(U3-FB)*
X114035000Y-77025000D03*
G04 #@! TO.P,R26,2*
G04 #@! TO.N,GND*
X113015000Y-77025000D03*
G04 #@! TD*
D18*
G04 #@! TO.P,Q2,1,G*
G04 #@! TO.N,Net-(Q2-G)*
X102737500Y-91375000D03*
G04 #@! TO.P,Q2,2,S*
G04 #@! TO.N,Net-(D3-K)*
X102737500Y-89475000D03*
G04 #@! TO.P,Q2,3,D*
G04 #@! TO.N,VIN+*
X100862500Y-90425000D03*
G04 #@! TD*
D13*
G04 #@! TO.P,C39,1*
G04 #@! TO.N,VLTE*
X102100000Y-74100000D03*
G04 #@! TO.P,C39,2*
G04 #@! TO.N,GND*
X102100000Y-72200000D03*
G04 #@! TD*
D19*
G04 #@! TO.P,R29,1*
G04 #@! TO.N,VLTE*
X113015000Y-78025000D03*
G04 #@! TO.P,R29,2*
G04 #@! TO.N,Net-(U3-FB)*
X114035000Y-78025000D03*
G04 #@! TD*
D20*
G04 #@! TO.P,L1,1*
G04 #@! TO.N,VLTE*
X104526094Y-73774164D03*
G04 #@! TO.P,L1,2*
G04 #@! TO.N,Net-(U3-SW)*
X109026094Y-73774164D03*
G04 #@! TD*
D21*
G04 #@! TO.P,J3,1,Pin_1*
G04 #@! TO.N,VLTE*
X83250000Y-74925000D03*
D22*
G04 #@! TO.P,J3,2,Pin_2*
G04 #@! TO.N,GND*
X83250000Y-77465000D03*
G04 #@! TO.P,J3,3,Pin_3*
G04 #@! TO.N,DM*
X83250000Y-80005000D03*
G04 #@! TO.P,J3,4,Pin_4*
G04 #@! TO.N,DP*
X83250000Y-82545000D03*
G04 #@! TO.P,J3,5,Pin_5*
G04 #@! TO.N,VBUS*
X83250000Y-85085000D03*
G04 #@! TD*
D23*
G04 #@! TO.P,C29,1*
G04 #@! TO.N,Net-(D14-K)*
X120650000Y-82525000D03*
G04 #@! TO.P,C29,2*
G04 #@! TO.N,Net-(D14-A)*
X120650000Y-84075000D03*
G04 #@! TD*
D24*
G04 #@! TO.P,C38,1*
G04 #@! TO.N,VLTE*
X113045000Y-79025000D03*
G04 #@! TO.P,C38,2*
G04 #@! TO.N,Net-(U3-FB)*
X114005000Y-79025000D03*
G04 #@! TD*
D25*
G04 #@! TO.P,TP1,1,1*
G04 #@! TO.N,GND*
X131400000Y-79330000D03*
G04 #@! TD*
D26*
G04 #@! TO.P,Q1,1,G*
G04 #@! TO.N,Net-(D4-A)*
X110412500Y-89650000D03*
G04 #@! TO.P,Q1,2,S*
G04 #@! TO.N,Net-(D3-K)*
X110412500Y-91550000D03*
G04 #@! TO.P,Q1,3,D*
G04 #@! TO.N,Net-(Q1-D)*
X112287500Y-90600000D03*
G04 #@! TD*
D27*
G04 #@! TO.P,U3,1,FB*
G04 #@! TO.N,Net-(U3-FB)*
X113837500Y-75550000D03*
G04 #@! TO.P,U3,2,EN*
G04 #@! TO.N,VIN+*
X113837500Y-74600000D03*
G04 #@! TO.P,U3,3,IN*
X113837500Y-73650000D03*
G04 #@! TO.P,U3,4,GND*
G04 #@! TO.N,GND*
X111562500Y-73650000D03*
G04 #@! TO.P,U3,5,SW*
G04 #@! TO.N,Net-(U3-SW)*
X111562500Y-74600000D03*
G04 #@! TO.P,U3,6,BST*
G04 #@! TO.N,Net-(D2-K)*
X111562500Y-75550000D03*
G04 #@! TD*
D28*
G04 #@! TO.P,D5,1,K*
G04 #@! TO.N,Net-(D14-A)*
X114850000Y-85900000D03*
G04 #@! TO.P,D5,2,A*
G04 #@! TO.N,GND*
X118150000Y-85900000D03*
G04 #@! TD*
D29*
G04 #@! TO.P,D8,1,K*
G04 #@! TO.N,Net-(D14-K)*
X123032500Y-78000000D03*
G04 #@! TO.P,D8,2,A*
G04 #@! TO.N,GND*
X127332500Y-78000000D03*
G04 #@! TD*
D30*
G04 #@! TO.P,R30,1*
G04 #@! TO.N,Net-(D14-K)*
X113300000Y-80875000D03*
G04 #@! TO.P,R30,2*
G04 #@! TO.N,Net-(D13-K)*
X113300000Y-82525000D03*
G04 #@! TD*
D31*
G04 #@! TO.P,C4,1*
G04 #@! TO.N,VLTE*
X94800000Y-74575000D03*
G04 #@! TO.P,C4,2*
G04 #@! TO.N,GND*
X94800000Y-80975000D03*
G04 #@! TD*
D18*
G04 #@! TO.P,Q12,1,G*
G04 #@! TO.N,Net-(Q12-G)*
X120137500Y-80850000D03*
G04 #@! TO.P,Q12,2,S*
G04 #@! TO.N,Net-(D14-K)*
X120137500Y-78950000D03*
G04 #@! TO.P,Q12,3,D*
G04 #@! TO.N,VIN+*
X118262500Y-79900000D03*
G04 #@! TD*
D32*
G04 #@! TO.P,J1,SH4,SHELL_GND__3*
G04 #@! TO.N,GND*
X130900000Y-84030000D03*
G04 #@! TO.P,J1,SH3,SHELL_GND__2*
X130900000Y-92670000D03*
D33*
G04 #@! TO.P,J1,SH2,SHELL_GND__1*
X126720000Y-84030000D03*
G04 #@! TO.P,J1,SH1,SHELL_GND*
X126720000Y-92670000D03*
D34*
G04 #@! TO.P,J1,B8,SBU2*
G04 #@! TO.N,unconnected-(J1-SBU2-PadB8)*
X126145000Y-90100000D03*
G04 #@! TO.P,J1,B7,DN2*
G04 #@! TO.N,DM*
X126145000Y-89100000D03*
G04 #@! TO.P,J1,B6,DP2*
G04 #@! TO.N,DP*
X126145000Y-87600000D03*
G04 #@! TO.P,J1,B5,CC2*
G04 #@! TO.N,CC2*
X126145000Y-86600000D03*
D35*
G04 #@! TO.P,J1,B4_A9,VBUS__1*
G04 #@! TO.N,VBUS*
X126145000Y-85950000D03*
G04 #@! TO.P,J1,B1_A12,GND__1*
G04 #@! TO.N,GND*
X126145000Y-85150000D03*
D34*
G04 #@! TO.P,J1,A8,SBU1*
G04 #@! TO.N,unconnected-(J1-SBU1-PadA8)*
X126145000Y-87100000D03*
G04 #@! TO.P,J1,A7,DN1*
G04 #@! TO.N,DM*
X126145000Y-88100000D03*
G04 #@! TO.P,J1,A6,DP1*
G04 #@! TO.N,DP*
X126145000Y-88600000D03*
G04 #@! TO.P,J1,A5,CC1*
G04 #@! TO.N,CC1*
X126145000Y-89600000D03*
D35*
G04 #@! TO.P,J1,A4_B9,VBUS*
G04 #@! TO.N,VBUS*
X126145000Y-90750000D03*
G04 #@! TO.P,J1,A1_B12,GND*
G04 #@! TO.N,GND*
X126145000Y-91550000D03*
G04 #@! TD*
D11*
G04 #@! TO.P,R43,1*
G04 #@! TO.N,Net-(D7-K)*
X113300000Y-87525000D03*
G04 #@! TO.P,R43,2*
G04 #@! TO.N,Net-(D14-A)*
X113300000Y-85875000D03*
G04 #@! TD*
D29*
G04 #@! TO.P,D6,1,K*
G04 #@! TO.N,Net-(D6-K)*
X123050000Y-73130000D03*
G04 #@! TO.P,D6,2,A*
G04 #@! TO.N,/12V*
X127350000Y-73130000D03*
G04 #@! TD*
D36*
G04 #@! TO.P,D14,1,K*
G04 #@! TO.N,Net-(D14-K)*
X122510000Y-81822500D03*
G04 #@! TO.P,D14,2,A*
G04 #@! TO.N,Net-(D14-A)*
X122510000Y-84322500D03*
G04 #@! TD*
D37*
G04 #@! TO.P,C15,1*
G04 #@! TO.N,VIN+*
X117650000Y-77100000D03*
G04 #@! TO.P,C15,2*
G04 #@! TO.N,GND*
X115750000Y-77100000D03*
G04 #@! TD*
D15*
G04 #@! TO.P,D3,1,K*
G04 #@! TO.N,Net-(D3-K)*
X106400000Y-91550000D03*
G04 #@! TO.P,D3,2,A*
G04 #@! TO.N,Net-(D3-A)*
X106400000Y-89050000D03*
G04 #@! TD*
D12*
G04 #@! TO.P,C3,1*
G04 #@! TO.N,Net-(D3-K)*
X104650000Y-91025000D03*
G04 #@! TO.P,C3,2*
G04 #@! TO.N,Net-(D3-A)*
X104650000Y-89475000D03*
G04 #@! TD*
D38*
G04 #@! TO.P,R3,1*
G04 #@! TO.N,Net-(Q2-G)*
X102975000Y-87600000D03*
G04 #@! TO.P,R3,2*
G04 #@! TO.N,Net-(D3-A)*
X104625000Y-87600000D03*
G04 #@! TD*
D30*
G04 #@! TO.P,R2,1*
G04 #@! TO.N,Net-(D1-K)*
X117800000Y-72155000D03*
G04 #@! TO.P,R2,2*
G04 #@! TO.N,VIN+*
X117800000Y-73805000D03*
G04 #@! TD*
D39*
G04 #@! TO.P,D1,1,K*
G04 #@! TO.N,Net-(D1-K)*
X118042500Y-70450000D03*
G04 #@! TO.P,D1,2,A*
G04 #@! TO.N,GND*
X120542500Y-70450000D03*
G04 #@! TD*
D12*
G04 #@! TO.P,C5,1*
G04 #@! TO.N,VLTE*
X98050000Y-73975000D03*
G04 #@! TO.P,C5,2*
G04 #@! TO.N,GND*
X98050000Y-72425000D03*
G04 #@! TD*
D25*
G04 #@! TO.P,TP10,1,1*
G04 #@! TO.N,/12V*
X131400000Y-72830000D03*
G04 #@! TD*
D38*
G04 #@! TO.P,R39,1*
G04 #@! TO.N,GND*
X120275000Y-85900000D03*
G04 #@! TO.P,R39,2*
G04 #@! TO.N,Net-(D14-A)*
X121925000Y-85900000D03*
G04 #@! TD*
D28*
G04 #@! TO.P,D2,1,K*
G04 #@! TO.N,Net-(D2-K)*
X111400000Y-69550000D03*
G04 #@! TO.P,D2,2,A*
G04 #@! TO.N,Net-(D1-K)*
X114700000Y-69550000D03*
G04 #@! TD*
D23*
G04 #@! TO.P,C2,1*
G04 #@! TO.N,Net-(D1-K)*
X116400000Y-69125000D03*
G04 #@! TO.P,C2,2*
G04 #@! TO.N,GND*
X116400000Y-70675000D03*
G04 #@! TD*
D40*
G04 #@! TO.P,F1,1*
G04 #@! TO.N,VBUS*
X117025000Y-90900000D03*
G04 #@! TO.P,F1,2*
G04 #@! TO.N,Net-(Q1-D)*
X114225000Y-90900000D03*
G04 #@! TD*
D11*
G04 #@! TO.P,R1,1*
G04 #@! TO.N,Net-(D4-A)*
X108175000Y-87575000D03*
G04 #@! TO.P,R1,2*
G04 #@! TO.N,GND*
X108175000Y-85925000D03*
G04 #@! TD*
D23*
G04 #@! TO.P,C30,1*
G04 #@! TO.N,VIN+*
X111600000Y-85925000D03*
G04 #@! TO.P,C30,2*
G04 #@! TO.N,Net-(D7-K)*
X111600000Y-87475000D03*
G04 #@! TD*
D18*
G04 #@! TO.P,Q3,1,B*
G04 #@! TO.N,Net-(D13-K)*
X116937500Y-83912500D03*
G04 #@! TO.P,Q3,2,E*
G04 #@! TO.N,Net-(D14-K)*
X116937500Y-82012500D03*
G04 #@! TO.P,Q3,3,C*
G04 #@! TO.N,Net-(D14-A)*
X115062500Y-82962500D03*
G04 #@! TD*
D11*
G04 #@! TO.P,R38,1*
G04 #@! TO.N,GND*
X109800000Y-87550000D03*
G04 #@! TO.P,R38,2*
G04 #@! TO.N,Net-(D13-A)*
X109800000Y-85900000D03*
G04 #@! TD*
D28*
G04 #@! TO.P,D7,1,K*
G04 #@! TO.N,Net-(D7-K)*
X114850000Y-88300000D03*
G04 #@! TO.P,D7,2,A*
G04 #@! TO.N,Net-(D14-A)*
X118150000Y-88300000D03*
G04 #@! TD*
D41*
G04 #@! TO.P,D13,1,K*
G04 #@! TO.N,Net-(D13-K)*
X113225000Y-84200000D03*
G04 #@! TO.P,D13,2,A*
G04 #@! TO.N,Net-(D13-A)*
X110725000Y-84200000D03*
G04 #@! TD*
D42*
G04 #@! TO.N,GND*
X94800000Y-79100000D03*
X93800000Y-79100000D03*
X129350000Y-87900000D03*
X119200000Y-85500000D03*
X123875000Y-94125000D03*
X125800000Y-80700000D03*
X111800000Y-71700000D03*
X115675000Y-79800000D03*
X128800000Y-80700000D03*
X127800000Y-80700000D03*
X115000000Y-78200000D03*
X115675000Y-80800000D03*
X99000000Y-70850000D03*
X129350000Y-88900000D03*
X111800000Y-72500000D03*
X127800000Y-79700000D03*
X112800000Y-76200000D03*
X121950000Y-70280000D03*
X114300000Y-71700000D03*
X115000000Y-77200000D03*
X106800000Y-84750000D03*
X96600000Y-70850000D03*
X126800000Y-80700000D03*
X113400000Y-71700000D03*
X96000000Y-91700000D03*
X110900000Y-71700000D03*
X100200000Y-70850000D03*
X107800000Y-84750000D03*
X97800000Y-70850000D03*
X96825000Y-91700000D03*
X110900000Y-72500000D03*
X91700000Y-79100000D03*
X119200000Y-86500000D03*
X124825000Y-94125000D03*
X92700000Y-79100000D03*
X126800000Y-79700000D03*
X103000000Y-85900000D03*
X104000000Y-85900000D03*
X122850000Y-70280000D03*
X129350000Y-86900000D03*
X129350000Y-90900000D03*
X129350000Y-89900000D03*
X125800000Y-79700000D03*
X129350000Y-85900000D03*
X128800000Y-79700000D03*
G04 #@! TO.N,VLTE*
X112400000Y-78800000D03*
X102752396Y-75779186D03*
G04 #@! TO.N,VIN+*
X117700000Y-79350000D03*
X111050000Y-82950000D03*
X110350000Y-82300000D03*
X118650000Y-78350000D03*
X110350000Y-82950000D03*
X117700000Y-78350000D03*
X118650000Y-79350000D03*
X111050000Y-82300000D03*
G04 #@! TO.N,Net-(D2-K)*
X112200000Y-77675000D03*
X112600000Y-69850000D03*
G04 #@! TO.N,DM*
X127300000Y-88100000D03*
G04 #@! TO.N,DP*
X124400000Y-89050000D03*
G04 #@! TO.N,Net-(D14-K)*
X122170000Y-80680000D03*
X121020000Y-78050000D03*
X122170000Y-79610000D03*
X123170000Y-79610000D03*
X120020000Y-78050000D03*
X124170000Y-79610000D03*
X124170000Y-80680000D03*
X123170000Y-80680000D03*
G04 #@! TO.N,Net-(D6-K)*
X122000000Y-75000000D03*
X123000000Y-75000000D03*
X121000000Y-73000000D03*
X120000000Y-73000000D03*
X124000000Y-75000000D03*
G04 #@! TD*
D43*
G04 #@! TO.N,VBUS*
X115136000Y-93564000D02*
X94414000Y-93564000D01*
X94414000Y-93564000D02*
X86204000Y-85354000D01*
D44*
X117025000Y-91225000D02*
X116980000Y-91270000D01*
D43*
X117025000Y-91675000D02*
X115136000Y-93564000D01*
X83519000Y-85354000D02*
X83250000Y-85085000D01*
X86204000Y-85354000D02*
X83519000Y-85354000D01*
D44*
X117025000Y-90900000D02*
X117025000Y-91225000D01*
D43*
X117025000Y-90900000D02*
X117025000Y-91675000D01*
D44*
G04 #@! TO.N,GND*
X131250000Y-81050000D02*
X131300000Y-81000000D01*
G04 #@! TO.N,VLTE*
X113045000Y-79025000D02*
X113045000Y-78055000D01*
X112820000Y-78800000D02*
X113045000Y-79025000D01*
X113045000Y-78055000D02*
X113015000Y-78025000D01*
X112400000Y-78800000D02*
X112820000Y-78800000D01*
D45*
G04 #@! TO.N,Net-(Q12-G)*
X119125000Y-82700000D02*
X119125000Y-81962500D01*
X119125000Y-81962500D02*
X120137500Y-80950000D01*
D44*
G04 #@! TO.N,VIN+*
X111600000Y-83500000D02*
X111050000Y-82950000D01*
X111600000Y-85925000D02*
X111600000Y-83500000D01*
D45*
G04 #@! TO.N,Net-(D1-K)*
X116717500Y-69125000D02*
X115125000Y-69125000D01*
X117800000Y-70207500D02*
X116717500Y-69125000D01*
X115125000Y-69125000D02*
X114700000Y-69550000D01*
X117800000Y-72155000D02*
X117800000Y-70207500D01*
D44*
G04 #@! TO.N,Net-(D2-K)*
X112600000Y-69850000D02*
X112300000Y-69550000D01*
X112300000Y-69550000D02*
X111400000Y-69550000D01*
X112200000Y-77675000D02*
X112080000Y-77555000D01*
X112080000Y-77555000D02*
X112080000Y-76800000D01*
D46*
X112080000Y-76800000D02*
X112080000Y-76067500D01*
X112080000Y-76067500D02*
X111562500Y-75550000D01*
D44*
G04 #@! TO.N,Net-(Q2-G)*
X101700000Y-89949500D02*
X101700000Y-88875000D01*
X102737500Y-90987000D02*
X101700000Y-89949500D01*
X102737500Y-91375000D02*
X102737500Y-90987000D01*
X101700000Y-88875000D02*
X102975000Y-87600000D01*
G04 #@! TO.N,Net-(D3-K)*
X108225000Y-91575000D02*
X110387500Y-91575000D01*
X110387500Y-91575000D02*
X110412500Y-91550000D01*
X104650000Y-91475000D02*
X108125000Y-91475000D01*
X102887500Y-89512500D02*
X104650000Y-91275000D01*
X104650000Y-91275000D02*
X104650000Y-91475000D01*
X108125000Y-91475000D02*
X108225000Y-91575000D01*
G04 #@! TO.N,Net-(D3-A)*
X105975000Y-89475000D02*
X106400000Y-89050000D01*
X106410000Y-89040000D02*
X106400000Y-89050000D01*
X106400000Y-89050000D02*
X106250000Y-88900000D01*
X104650000Y-89475000D02*
X105975000Y-89475000D01*
X106250000Y-88900000D02*
X106250000Y-87575000D01*
X104650000Y-87575000D02*
X104625000Y-87600000D01*
X106250000Y-87575000D02*
X104650000Y-87575000D01*
G04 #@! TO.N,Net-(D4-A)*
X108400000Y-87800000D02*
X108175000Y-87575000D01*
X110412500Y-89650000D02*
X109000000Y-89650000D01*
X108400000Y-89050000D02*
X108400000Y-87800000D01*
X109000000Y-89650000D02*
X108400000Y-89050000D01*
G04 #@! TO.N,Net-(D14-A)*
X121925000Y-85900000D02*
X121925000Y-85350000D01*
X120600000Y-84125000D02*
X120650000Y-84075000D01*
X113325000Y-85900000D02*
X114850000Y-85900000D01*
X118150000Y-88100000D02*
X117600000Y-88100000D01*
X115400000Y-85900000D02*
X114850000Y-85900000D01*
X115062500Y-82962500D02*
X114600000Y-83425000D01*
X121925000Y-85350000D02*
X120650000Y-84075000D01*
X114600000Y-83425000D02*
X114600000Y-84500000D01*
X114600000Y-84500000D02*
X113300000Y-85800000D01*
X117600000Y-88100000D02*
X115400000Y-85900000D01*
X113300000Y-85875000D02*
X113325000Y-85900000D01*
X115700000Y-83600000D02*
X115062500Y-82962500D01*
X119075000Y-84125000D02*
X118733500Y-84466500D01*
X118733500Y-84466500D02*
X116066500Y-84466500D01*
X119075000Y-84125000D02*
X120600000Y-84125000D01*
X115700000Y-84100000D02*
X115700000Y-83600000D01*
X122510000Y-84322500D02*
X122510000Y-85315000D01*
X113300000Y-85800000D02*
X113300000Y-85875000D01*
X122510000Y-85315000D02*
X121925000Y-85900000D01*
X116066500Y-84466500D02*
X115700000Y-84100000D01*
D45*
G04 #@! TO.N,DM*
X127020000Y-89100000D02*
X127300000Y-88820000D01*
X127300000Y-88100000D02*
X126145000Y-88100000D01*
X127300000Y-88820000D02*
X127300000Y-88100000D01*
X126145000Y-89100000D02*
X127020000Y-89100000D01*
G04 #@! TO.N,DP*
X126145000Y-87600000D02*
X125270000Y-87600000D01*
X124850000Y-88600000D02*
X124400000Y-89050000D01*
X125266000Y-88596000D02*
X125270000Y-88600000D01*
X126145000Y-88600000D02*
X124850000Y-88600000D01*
X125270000Y-88600000D02*
X126145000Y-88600000D01*
X125270000Y-87600000D02*
X125266000Y-87604000D01*
X125266000Y-87604000D02*
X125266000Y-88596000D01*
G04 #@! TO.N,Net-(D14-K)*
X120650000Y-82750000D02*
X121582500Y-82750000D01*
D44*
X116937500Y-82012500D02*
X116937500Y-82497354D01*
X116937500Y-82497354D02*
X117794146Y-83354000D01*
X114125000Y-81700000D02*
X113300000Y-80875000D01*
X116937500Y-82012500D02*
X116625000Y-81700000D01*
X116625000Y-81700000D02*
X114125000Y-81700000D01*
D45*
X121582500Y-82750000D02*
X122510000Y-81822500D01*
D44*
X120046000Y-83354000D02*
X120650000Y-82750000D01*
X117794146Y-83354000D02*
X120046000Y-83354000D01*
G04 #@! TO.N,Net-(D7-K)*
X111600000Y-87475000D02*
X114225000Y-87475000D01*
X114225000Y-87475000D02*
X114850000Y-88100000D01*
G04 #@! TO.N,Net-(D13-K)*
X113225000Y-84200000D02*
X113225000Y-82600000D01*
X115750000Y-82275000D02*
X116937500Y-83462500D01*
X113225000Y-82600000D02*
X113550000Y-82275000D01*
X116937500Y-83462500D02*
X116937500Y-83912500D01*
X113550000Y-82275000D02*
X115750000Y-82275000D01*
G04 #@! TO.N,Net-(D13-A)*
X109800000Y-85900000D02*
X109800000Y-85125000D01*
X109800000Y-85125000D02*
X110725000Y-84200000D01*
G04 #@! TO.N,Net-(U3-FB)*
X113980000Y-79000000D02*
X114005000Y-79025000D01*
X114005000Y-75717500D02*
X113837500Y-75550000D01*
X114005000Y-79025000D02*
X114005000Y-75717500D01*
D46*
G04 #@! TO.N,Net-(U3-SW)*
X109175000Y-75030000D02*
X109175000Y-74300000D01*
D44*
X109475000Y-74600000D02*
X109175000Y-74300000D01*
D46*
X110572500Y-76427500D02*
X110572500Y-75027500D01*
X111095000Y-76950000D02*
X110572500Y-76427500D01*
X110572500Y-75027500D02*
X111000000Y-74600000D01*
D44*
X111562500Y-74600000D02*
X109475000Y-74600000D01*
D46*
X111000000Y-74600000D02*
X111562500Y-74600000D01*
D44*
G04 #@! TO.N,Net-(D6-K)*
X120210000Y-74120000D02*
X122060000Y-74120000D01*
X122060000Y-74120000D02*
X123050000Y-73130000D01*
G04 #@! TD*
G04 #@! TA.AperFunction,Conductor*
G04 #@! TO.N,VIN+*
G36*
X114898185Y-72860265D02*
G01*
X114906271Y-72865929D01*
X115377680Y-73225000D01*
X118698638Y-73225000D01*
X118765677Y-73244685D01*
X118786319Y-73261319D01*
X119144285Y-73619285D01*
X119177770Y-73680608D01*
X119179656Y-73708294D01*
X119180500Y-73708294D01*
X119180500Y-74526839D01*
X119195500Y-74621552D01*
X119236485Y-74701987D01*
X119250000Y-74758282D01*
X119250000Y-76281716D01*
X119236485Y-76338010D01*
X119195501Y-76418445D01*
X119195500Y-76418448D01*
X119180500Y-76513160D01*
X119180500Y-77326839D01*
X119195500Y-77421552D01*
X119195501Y-77421554D01*
X119195502Y-77421555D01*
X119238984Y-77506893D01*
X119250000Y-77552774D01*
X119250000Y-78716348D01*
X119249469Y-78720323D01*
X119245500Y-78754536D01*
X119245500Y-79145463D01*
X119249475Y-79179726D01*
X119250000Y-79183654D01*
X119250000Y-80616348D01*
X119249469Y-80620323D01*
X119245500Y-80654536D01*
X119245500Y-81007411D01*
X119225815Y-81074450D01*
X119209181Y-81095092D01*
X118925593Y-81378681D01*
X118864270Y-81412166D01*
X118837912Y-81415000D01*
X117003862Y-81415000D01*
X116948845Y-81398845D01*
X116621283Y-81071283D01*
X116602834Y-81037496D01*
X116600000Y-81011138D01*
X116600000Y-76150000D01*
X116297164Y-75847164D01*
X116141341Y-75847164D01*
X116074302Y-75827479D01*
X116028547Y-75774675D01*
X116027027Y-75771209D01*
X115864186Y-75383760D01*
X115854500Y-75335715D01*
X115854500Y-75286034D01*
X115854500Y-75286032D01*
X115851643Y-75261406D01*
X115807170Y-75160685D01*
X115760997Y-75114512D01*
X115734365Y-75074878D01*
X115660866Y-74900000D01*
X113330756Y-74900000D01*
X113263717Y-74880315D01*
X113231556Y-74850400D01*
X113124800Y-74708058D01*
X113100324Y-74642615D01*
X113100000Y-74633658D01*
X113100000Y-73130749D01*
X113119685Y-73063710D01*
X113146709Y-73033784D01*
X113355175Y-72867615D01*
X113419868Y-72841222D01*
X113432466Y-72840580D01*
X114831146Y-72840580D01*
X114898185Y-72860265D01*
G37*
G04 #@! TD.AperFunction*
G04 #@! TD*
G04 #@! TA.AperFunction,Conductor*
G04 #@! TO.N,/12V*
G36*
X133725677Y-69419685D02*
G01*
X133746319Y-69436319D01*
X134033681Y-69723681D01*
X134067166Y-69785004D01*
X134070000Y-69811362D01*
X134070000Y-74608638D01*
X134050315Y-74675677D01*
X134033681Y-74696319D01*
X133656319Y-75073681D01*
X133594996Y-75107166D01*
X133568638Y-75110000D01*
X126221362Y-75110000D01*
X126154323Y-75090315D01*
X126133681Y-75073681D01*
X125826319Y-74766319D01*
X125792834Y-74704996D01*
X125790000Y-74678638D01*
X125790000Y-69791362D01*
X125809685Y-69724323D01*
X125826319Y-69703681D01*
X126093681Y-69436319D01*
X126155004Y-69402834D01*
X126181362Y-69400000D01*
X133658638Y-69400000D01*
X133725677Y-69419685D01*
G37*
G04 #@! TD.AperFunction*
G04 #@! TD*
G04 #@! TA.AperFunction,Conductor*
G04 #@! TO.N,Net-(U3-SW)*
G36*
X110167183Y-73418907D02*
G01*
X110178996Y-73428996D01*
X110850000Y-74100000D01*
X110850001Y-74100000D01*
X110859224Y-74103820D01*
X110886188Y-74110058D01*
X110948607Y-74140573D01*
X111016740Y-74150500D01*
X111016743Y-74150500D01*
X112108256Y-74150500D01*
X112108260Y-74150500D01*
X112176393Y-74140573D01*
X112176395Y-74140571D01*
X112183256Y-74139572D01*
X112243565Y-74149892D01*
X112267534Y-74167534D01*
X112371004Y-74271004D01*
X112398781Y-74325521D01*
X112400000Y-74341008D01*
X112400000Y-74958992D01*
X112381093Y-75017183D01*
X112371003Y-75028997D01*
X112336645Y-75063354D01*
X112282128Y-75091130D01*
X112223162Y-75082290D01*
X112176395Y-75059427D01*
X112149139Y-75055456D01*
X112108260Y-75049500D01*
X111016740Y-75049500D01*
X110982673Y-75054463D01*
X110948604Y-75059427D01*
X110843518Y-75110801D01*
X110760801Y-75193518D01*
X110709427Y-75298604D01*
X110699500Y-75366743D01*
X110699500Y-75409492D01*
X110680593Y-75467683D01*
X110670504Y-75479496D01*
X110303996Y-75846004D01*
X110249479Y-75873781D01*
X110233992Y-75875000D01*
X109716008Y-75875000D01*
X109657817Y-75856093D01*
X109646004Y-75846004D01*
X109228996Y-75428996D01*
X109201219Y-75374479D01*
X109200000Y-75358992D01*
X109200000Y-73841008D01*
X109218907Y-73782817D01*
X109228996Y-73771004D01*
X109571004Y-73428996D01*
X109625521Y-73401219D01*
X109641008Y-73400000D01*
X110108992Y-73400000D01*
X110167183Y-73418907D01*
G37*
G04 #@! TD.AperFunction*
G04 #@! TD*
G04 #@! TA.AperFunction,Conductor*
G04 #@! TO.N,VBUS*
G36*
X117890677Y-89574685D02*
G01*
X117911319Y-89591319D01*
X117993681Y-89673681D01*
X118027166Y-89735004D01*
X118030000Y-89761362D01*
X118030000Y-90005000D01*
X118314998Y-90289999D01*
X118314999Y-90289999D01*
X118315000Y-90290000D01*
X123000000Y-90295607D01*
X123000000Y-91425000D01*
X123225000Y-91650000D01*
X123700000Y-91650000D01*
X123875000Y-91475000D01*
X123875000Y-90296654D01*
X125350408Y-90298420D01*
X125417422Y-90318185D01*
X125453359Y-90353528D01*
X125458610Y-90361387D01*
X125509717Y-90395536D01*
X125509718Y-90395537D01*
X125554777Y-90404499D01*
X125554780Y-90404500D01*
X126723138Y-90404500D01*
X126790177Y-90424185D01*
X126810819Y-90440819D01*
X126838681Y-90468681D01*
X126872166Y-90530004D01*
X126875000Y-90556362D01*
X126875000Y-90719758D01*
X126855315Y-90786797D01*
X126838681Y-90807439D01*
X126759487Y-90886632D01*
X126759485Y-90886635D01*
X126683717Y-91017867D01*
X126683268Y-91018953D01*
X126682643Y-91019728D01*
X126679655Y-91024904D01*
X126678847Y-91024437D01*
X126639427Y-91073356D01*
X126573133Y-91095421D01*
X126568707Y-91095500D01*
X125554777Y-91095500D01*
X125509719Y-91104462D01*
X125492116Y-91116224D01*
X125472844Y-91129101D01*
X125406170Y-91149980D01*
X125403954Y-91150000D01*
X124999999Y-91150000D01*
X124186319Y-91963681D01*
X124124996Y-91997166D01*
X124098638Y-92000000D01*
X116926362Y-92000000D01*
X116859323Y-91980315D01*
X116838681Y-91963681D01*
X116132191Y-91257191D01*
X116098706Y-91195868D01*
X116095872Y-91169510D01*
X116095872Y-89805490D01*
X116115557Y-89738451D01*
X116132191Y-89717809D01*
X116258681Y-89591319D01*
X116320004Y-89557834D01*
X116346362Y-89555000D01*
X117823638Y-89555000D01*
X117890677Y-89574685D01*
G37*
G04 #@! TD.AperFunction*
G04 #@! TD*
G04 #@! TA.AperFunction,Conductor*
G04 #@! TO.N,Net-(Q1-D)*
G36*
X114471948Y-89022599D02*
G01*
X114515218Y-89043752D01*
X114537169Y-89046950D01*
X114600669Y-89076092D01*
X114606973Y-89081973D01*
X115113681Y-89588681D01*
X115147166Y-89650004D01*
X115150000Y-89676362D01*
X115150000Y-91556574D01*
X115130315Y-91623613D01*
X115113681Y-91644255D01*
X114444255Y-92313681D01*
X114382932Y-92347166D01*
X114356574Y-92350000D01*
X112286362Y-92350000D01*
X112219323Y-92330315D01*
X112198681Y-92313681D01*
X111445819Y-91560819D01*
X111412334Y-91499496D01*
X111409500Y-91473138D01*
X111409500Y-91151361D01*
X111409442Y-91150296D01*
X111408586Y-91134311D01*
X111405752Y-91107953D01*
X111387156Y-91048564D01*
X111387155Y-91048563D01*
X111387155Y-91048561D01*
X111353670Y-90987239D01*
X111349730Y-90981975D01*
X111325316Y-90916510D01*
X111325000Y-90907669D01*
X111325000Y-89776362D01*
X111344685Y-89709323D01*
X111361319Y-89688681D01*
X112003681Y-89046319D01*
X112065004Y-89012834D01*
X112091362Y-89010000D01*
X114417489Y-89010000D01*
X114471948Y-89022599D01*
G37*
G04 #@! TD.AperFunction*
G04 #@! TD*
G04 #@! TA.AperFunction,Conductor*
G04 #@! TO.N,VIN+*
G36*
X111265677Y-81944685D02*
G01*
X111286319Y-81961319D01*
X111513681Y-82188681D01*
X111547166Y-82250004D01*
X111550000Y-82276362D01*
X111550000Y-83048638D01*
X111530315Y-83115677D01*
X111513681Y-83136319D01*
X111286319Y-83363681D01*
X111224996Y-83397166D01*
X111198638Y-83400000D01*
X103424999Y-83400000D01*
X101775000Y-85049999D01*
X101775000Y-88388719D01*
X101755315Y-88455758D01*
X101738681Y-88476400D01*
X101538395Y-88676685D01*
X101538396Y-88676686D01*
X101484242Y-88730839D01*
X101445501Y-88824373D01*
X101445500Y-88824378D01*
X101445500Y-90000121D01*
X101445501Y-90000126D01*
X101484242Y-90093660D01*
X101738681Y-90348099D01*
X101772166Y-90409422D01*
X101775000Y-90435780D01*
X101775000Y-90748638D01*
X101755315Y-90815677D01*
X101738681Y-90836319D01*
X101486319Y-91088681D01*
X101424996Y-91122166D01*
X101398638Y-91125000D01*
X100078460Y-91125000D01*
X100011421Y-91105315D01*
X99984312Y-91081698D01*
X99604852Y-90638994D01*
X99576169Y-90575283D01*
X99575000Y-90558296D01*
X99575000Y-84601362D01*
X99594685Y-84534323D01*
X99611319Y-84513681D01*
X102163681Y-81961319D01*
X102225004Y-81927834D01*
X102251362Y-81925000D01*
X111198638Y-81925000D01*
X111265677Y-81944685D01*
G37*
G04 #@! TD.AperFunction*
G04 #@! TD*
G04 #@! TA.AperFunction,Conductor*
G04 #@! TO.N,VBUS*
G36*
X125418353Y-85519685D02*
G01*
X125454416Y-85555109D01*
X125458611Y-85561388D01*
X125509717Y-85595536D01*
X125509718Y-85595537D01*
X125554777Y-85604499D01*
X125554780Y-85604500D01*
X125554782Y-85604500D01*
X126568707Y-85604500D01*
X126635746Y-85624185D01*
X126681501Y-85676989D01*
X126683268Y-85681047D01*
X126683717Y-85682132D01*
X126683719Y-85682135D01*
X126759485Y-85813365D01*
X126866635Y-85920515D01*
X126948135Y-85967569D01*
X126969402Y-85979848D01*
X127017618Y-86030415D01*
X127030840Y-86099022D01*
X127004872Y-86163887D01*
X126995083Y-86174916D01*
X126898258Y-86271741D01*
X126836935Y-86305226D01*
X126786386Y-86305677D01*
X126735222Y-86295500D01*
X126735218Y-86295500D01*
X125554782Y-86295500D01*
X125554777Y-86295500D01*
X125509718Y-86304462D01*
X125509717Y-86304463D01*
X125458611Y-86338611D01*
X125454416Y-86344891D01*
X125400803Y-86389696D01*
X125351314Y-86400000D01*
X125049999Y-86400000D01*
X123875000Y-87574999D01*
X123875000Y-87575000D01*
X123875000Y-91475000D01*
X123700000Y-91650000D01*
X123225000Y-91650000D01*
X123000000Y-91425000D01*
X123000000Y-87176362D01*
X123019685Y-87109323D01*
X123036319Y-87088681D01*
X124588681Y-85536319D01*
X124650004Y-85502834D01*
X124676362Y-85500000D01*
X125351314Y-85500000D01*
X125418353Y-85519685D01*
G37*
G04 #@! TD.AperFunction*
G04 #@! TD*
G04 #@! TA.AperFunction,Conductor*
G04 #@! TO.N,VLTE*
G36*
X103768484Y-73169685D02*
G01*
X103789126Y-73186319D01*
X104113681Y-73510874D01*
X104147166Y-73572197D01*
X104150000Y-73598555D01*
X104150000Y-75864538D01*
X104130315Y-75931577D01*
X104111463Y-75954382D01*
X103889174Y-76165832D01*
X103827034Y-76197775D01*
X103803682Y-76199988D01*
X82616345Y-76195012D01*
X82549310Y-76175312D01*
X82528693Y-76158693D01*
X81956319Y-75586319D01*
X81922834Y-75524996D01*
X81920000Y-75498638D01*
X81920000Y-73646362D01*
X81939685Y-73579323D01*
X81956319Y-73558681D01*
X82328681Y-73186319D01*
X82390004Y-73152834D01*
X82416362Y-73150000D01*
X103701445Y-73150000D01*
X103768484Y-73169685D01*
G37*
G04 #@! TD.AperFunction*
G04 #@! TD*
G04 #@! TA.AperFunction,Conductor*
G04 #@! TO.N,Net-(D3-K)*
G36*
X104004856Y-88944685D02*
G01*
X104050611Y-88997489D01*
X104060555Y-89066647D01*
X104049218Y-89103459D01*
X104034130Y-89134323D01*
X104031248Y-89140218D01*
X104020500Y-89213987D01*
X104020500Y-89213991D01*
X104020500Y-89213992D01*
X104020500Y-89736011D01*
X104031248Y-89809782D01*
X104086875Y-89923570D01*
X104176429Y-90013124D01*
X104176430Y-90013124D01*
X104176432Y-90013126D01*
X104290218Y-90068752D01*
X104363987Y-90079500D01*
X104936012Y-90079499D01*
X105009782Y-90068752D01*
X105121541Y-90014116D01*
X105190413Y-90002359D01*
X105254710Y-90029702D01*
X105294017Y-90087467D01*
X105300000Y-90125518D01*
X105300000Y-90430000D01*
X105550000Y-90680000D01*
X110778638Y-90680000D01*
X110845677Y-90699685D01*
X110866319Y-90716319D01*
X111213681Y-91063681D01*
X111247166Y-91125004D01*
X111250000Y-91151362D01*
X111250000Y-91883638D01*
X111230315Y-91950677D01*
X111213681Y-91971319D01*
X111058819Y-92126181D01*
X110997496Y-92159666D01*
X110971138Y-92162500D01*
X103921362Y-92162500D01*
X103854323Y-92142815D01*
X103833681Y-92126181D01*
X103761319Y-92053819D01*
X103727834Y-91992496D01*
X103725000Y-91966138D01*
X103725000Y-90925000D01*
X103550000Y-90750000D01*
X102911780Y-90750000D01*
X102844741Y-90730315D01*
X102824099Y-90713681D01*
X102036319Y-89925901D01*
X102002834Y-89864578D01*
X102000000Y-89838220D01*
X102000000Y-89201362D01*
X102019685Y-89134323D01*
X102036319Y-89113681D01*
X102188681Y-88961319D01*
X102250004Y-88927834D01*
X102276362Y-88925000D01*
X103937817Y-88925000D01*
X104004856Y-88944685D01*
G37*
G04 #@! TD.AperFunction*
G04 #@! TD*
G04 #@! TA.AperFunction,Conductor*
G04 #@! TO.N,VIN+*
G36*
X116948845Y-81398845D02*
G01*
X116936823Y-81395315D01*
X116916181Y-81378681D01*
X116636319Y-81098819D01*
X116621283Y-81071283D01*
X116948845Y-81398845D01*
G37*
G04 #@! TD.AperFunction*
G04 #@! TA.AperFunction,Conductor*
G36*
X119252500Y-79202360D02*
G01*
X119252500Y-80597637D01*
X119250000Y-80616348D01*
X119250000Y-79183654D01*
X119252500Y-79202360D01*
G37*
G04 #@! TD.AperFunction*
G04 #@! TA.AperFunction,Conductor*
G36*
X119252500Y-77563187D02*
G01*
X119252500Y-78697637D01*
X119250000Y-78716348D01*
X119250000Y-77552774D01*
X119252500Y-77563187D01*
G37*
G04 #@! TD.AperFunction*
G04 #@! TD*
G04 #@! TA.AperFunction,Conductor*
G04 #@! TO.N,Net-(D6-K)*
G36*
X124145677Y-71449685D02*
G01*
X124166319Y-71466319D01*
X124773681Y-72073681D01*
X124807166Y-72135004D01*
X124810000Y-72161362D01*
X124810000Y-74863638D01*
X124790315Y-74930677D01*
X124773681Y-74951319D01*
X124241319Y-75483681D01*
X124179996Y-75517166D01*
X124153638Y-75520000D01*
X119903426Y-75520000D01*
X119836387Y-75500315D01*
X119815745Y-75483681D01*
X119445819Y-75113755D01*
X119412334Y-75052432D01*
X119409500Y-75026074D01*
X119409500Y-74758279D01*
X119409499Y-74758275D01*
X119405094Y-74721053D01*
X119405093Y-74721049D01*
X119399677Y-74698489D01*
X119391578Y-74664753D01*
X119378600Y-74629574D01*
X119358002Y-74589149D01*
X119346012Y-74552246D01*
X119341526Y-74523914D01*
X119340000Y-74504522D01*
X119340000Y-73708305D01*
X119340000Y-73708294D01*
X119338837Y-73689068D01*
X119338836Y-73689067D01*
X119338586Y-73684918D01*
X119337320Y-73675924D01*
X119336901Y-73669767D01*
X119317760Y-73604169D01*
X119317760Y-73604168D01*
X119284276Y-73542846D01*
X119274731Y-73530095D01*
X119250316Y-73464630D01*
X119250000Y-73455787D01*
X119250000Y-73191362D01*
X119269685Y-73124323D01*
X119286319Y-73103681D01*
X120923681Y-71466319D01*
X120985004Y-71432834D01*
X121011362Y-71430000D01*
X124078638Y-71430000D01*
X124145677Y-71449685D01*
G37*
G04 #@! TD.AperFunction*
G04 #@! TD*
G04 #@! TA.AperFunction,Conductor*
G04 #@! TO.N,Net-(D14-K)*
G36*
X124915677Y-76919685D02*
G01*
X124936319Y-76936319D01*
X125066181Y-77066181D01*
X125099666Y-77127504D01*
X125102500Y-77153862D01*
X125102500Y-81396538D01*
X125082815Y-81463577D01*
X125066181Y-81484219D01*
X124486719Y-82063681D01*
X124425396Y-82097166D01*
X124399038Y-82100000D01*
X121793252Y-82100000D01*
X121726213Y-82080315D01*
X121702916Y-82060944D01*
X121001495Y-81314996D01*
X120969913Y-81252674D01*
X120977038Y-81183168D01*
X120978398Y-81179967D01*
X120980561Y-81175066D01*
X120980563Y-81175065D01*
X121026546Y-81070923D01*
X121029500Y-81045460D01*
X121029500Y-80654540D01*
X121026546Y-80629077D01*
X120980563Y-80524935D01*
X120900065Y-80444437D01*
X120795924Y-80398454D01*
X120770463Y-80395500D01*
X120770460Y-80395500D01*
X120190495Y-80395500D01*
X120123456Y-80375815D01*
X120100162Y-80356446D01*
X119771324Y-80006734D01*
X119445664Y-79660400D01*
X119414081Y-79598076D01*
X119412000Y-79575456D01*
X119412000Y-79202368D01*
X119412000Y-79202360D01*
X119410594Y-79181231D01*
X119408639Y-79166603D01*
X119408638Y-79166587D01*
X119407897Y-79161055D01*
X119407638Y-79158985D01*
X119405824Y-79143355D01*
X119405000Y-79129076D01*
X119405000Y-78770916D01*
X119405826Y-78756631D01*
X119407612Y-78741231D01*
X119407881Y-78739070D01*
X119408096Y-78737467D01*
X119408096Y-78737460D01*
X119408638Y-78733411D01*
X119408639Y-78733390D01*
X119410595Y-78718760D01*
X119412000Y-78697637D01*
X119412000Y-77563187D01*
X119407593Y-77525952D01*
X119405490Y-77517196D01*
X119402064Y-77488246D01*
X119402064Y-77266362D01*
X119421749Y-77199323D01*
X119438383Y-77178681D01*
X119680745Y-76936319D01*
X119742068Y-76902834D01*
X119768426Y-76900000D01*
X124848638Y-76900000D01*
X124915677Y-76919685D01*
G37*
G04 #@! TD.AperFunction*
G04 #@! TD*
G04 #@! TA.AperFunction,Conductor*
G04 #@! TO.N,GND*
G36*
X134029116Y-68282896D02*
G01*
X134065220Y-68332294D01*
X134070152Y-68363001D01*
X134071485Y-69231705D01*
X134052667Y-69289925D01*
X134003222Y-69325965D01*
X133942037Y-69326058D01*
X133902481Y-69301861D01*
X133891623Y-69291003D01*
X133875277Y-69276320D01*
X133875270Y-69276314D01*
X133875262Y-69276307D01*
X133854620Y-69259673D01*
X133854619Y-69259672D01*
X133783576Y-69222510D01*
X133783571Y-69222508D01*
X133716542Y-69202826D01*
X133716533Y-69202824D01*
X133670322Y-69196180D01*
X133658638Y-69194500D01*
X126181362Y-69194500D01*
X126181343Y-69194500D01*
X126159405Y-69195677D01*
X126159398Y-69195677D01*
X126159393Y-69195678D01*
X126150894Y-69196591D01*
X126133038Y-69198511D01*
X126133033Y-69198512D01*
X126056520Y-69222469D01*
X125995193Y-69255957D01*
X125948369Y-69291010D01*
X125681003Y-69558376D01*
X125666320Y-69574722D01*
X125666301Y-69574745D01*
X125649672Y-69595380D01*
X125612510Y-69666423D01*
X125612508Y-69666428D01*
X125592826Y-69733457D01*
X125592824Y-69733466D01*
X125584500Y-69791362D01*
X125584500Y-74678656D01*
X125585677Y-74700594D01*
X125585678Y-74700603D01*
X125588511Y-74726961D01*
X125588512Y-74726966D01*
X125612469Y-74803479D01*
X125612471Y-74803482D01*
X125645318Y-74863637D01*
X125645957Y-74864806D01*
X125681010Y-74911630D01*
X125988376Y-75218996D01*
X125999657Y-75229129D01*
X126004738Y-75233693D01*
X126020579Y-75246458D01*
X126025380Y-75250327D01*
X126079869Y-75278830D01*
X126096425Y-75287490D01*
X126096426Y-75287490D01*
X126096428Y-75287491D01*
X126134285Y-75298607D01*
X126163464Y-75307175D01*
X126221362Y-75315500D01*
X126221363Y-75315500D01*
X133568620Y-75315500D01*
X133568638Y-75315500D01*
X133590607Y-75314322D01*
X133616965Y-75311488D01*
X133693482Y-75287529D01*
X133754805Y-75254044D01*
X133801629Y-75218991D01*
X133911610Y-75109009D01*
X133966125Y-75081233D01*
X134026557Y-75090804D01*
X134069821Y-75134069D01*
X134080612Y-75178862D01*
X134110420Y-94600940D01*
X134091602Y-94659160D01*
X134042157Y-94695200D01*
X134011513Y-94700092D01*
X133257954Y-94700798D01*
X133208231Y-94686500D01*
X133207883Y-94687132D01*
X132890836Y-94511907D01*
X132890837Y-94511907D01*
X132558723Y-94374340D01*
X132213307Y-94274828D01*
X132213287Y-94274824D01*
X131858917Y-94214614D01*
X131858897Y-94214611D01*
X131500005Y-94194457D01*
X131499995Y-94194457D01*
X131141102Y-94214611D01*
X131141082Y-94214614D01*
X130786712Y-94274824D01*
X130786692Y-94274828D01*
X130441276Y-94374340D01*
X130109162Y-94511907D01*
X129794544Y-94685790D01*
X129794536Y-94685795D01*
X129794461Y-94685849D01*
X129794441Y-94685855D01*
X129792196Y-94687266D01*
X129791832Y-94686687D01*
X129737280Y-94704099D01*
X86320277Y-94744807D01*
X86262895Y-94726547D01*
X86218715Y-94695200D01*
X86205452Y-94685789D01*
X86205451Y-94685788D01*
X86205449Y-94685787D01*
X85890836Y-94511907D01*
X85890837Y-94511907D01*
X85558723Y-94374340D01*
X85213307Y-94274828D01*
X85213287Y-94274824D01*
X84858917Y-94214614D01*
X84858897Y-94214611D01*
X84500005Y-94194457D01*
X84499995Y-94194457D01*
X84141102Y-94214611D01*
X84141082Y-94214614D01*
X83786712Y-94274824D01*
X83786692Y-94274828D01*
X83441276Y-94374340D01*
X83109162Y-94511907D01*
X82794548Y-94685787D01*
X82794545Y-94685789D01*
X82732285Y-94729965D01*
X82675091Y-94748224D01*
X81934815Y-94748919D01*
X81876606Y-94730066D01*
X81840596Y-94680600D01*
X81835722Y-94649919D01*
X81835722Y-85084996D01*
X82194417Y-85084996D01*
X82194417Y-85085003D01*
X82214698Y-85290929D01*
X82214699Y-85290934D01*
X82274768Y-85488954D01*
X82372316Y-85671452D01*
X82483249Y-85806624D01*
X82503590Y-85831410D01*
X82503595Y-85831414D01*
X82663547Y-85962683D01*
X82663548Y-85962683D01*
X82663550Y-85962685D01*
X82846046Y-86060232D01*
X82983997Y-86102078D01*
X83044065Y-86120300D01*
X83044070Y-86120301D01*
X83249997Y-86140583D01*
X83250000Y-86140583D01*
X83250003Y-86140583D01*
X83455929Y-86120301D01*
X83455929Y-86120300D01*
X83455934Y-86120300D01*
X83611695Y-86073049D01*
X83620849Y-86070745D01*
X83625309Y-86069846D01*
X83625311Y-86069846D01*
X84366190Y-85920518D01*
X84931267Y-85806624D01*
X84931392Y-85807246D01*
X84951444Y-85804500D01*
X85976389Y-85804500D01*
X86034580Y-85823407D01*
X86046393Y-85833496D01*
X94137386Y-93924489D01*
X94196696Y-93958731D01*
X94240114Y-93983799D01*
X94354691Y-94014500D01*
X94354693Y-94014500D01*
X115195309Y-94014500D01*
X115285669Y-93990287D01*
X115285672Y-93990287D01*
X115298903Y-93986741D01*
X115309887Y-93983799D01*
X115412614Y-93924489D01*
X117102607Y-92234496D01*
X117157124Y-92206719D01*
X117172611Y-92205500D01*
X124098620Y-92205500D01*
X124098638Y-92205500D01*
X124120607Y-92204322D01*
X124146965Y-92201488D01*
X124223482Y-92177529D01*
X124284805Y-92144044D01*
X124331630Y-92108991D01*
X125056124Y-91384495D01*
X125110641Y-91356719D01*
X125126128Y-91355500D01*
X125403967Y-91355500D01*
X125404643Y-91355497D01*
X125405809Y-91355492D01*
X125408025Y-91355472D01*
X125467582Y-91346089D01*
X125534256Y-91325210D01*
X125564595Y-91310694D01*
X125607321Y-91301000D01*
X126564578Y-91301000D01*
X126622769Y-91319907D01*
X126658733Y-91369407D01*
X126660200Y-91374362D01*
X126667741Y-91402502D01*
X126683720Y-91462139D01*
X126759481Y-91593360D01*
X126759483Y-91593362D01*
X126759485Y-91593365D01*
X126866635Y-91700515D01*
X126866637Y-91700516D01*
X126866639Y-91700518D01*
X126997861Y-91776279D01*
X126997859Y-91776279D01*
X126997863Y-91776280D01*
X126997865Y-91776281D01*
X127144234Y-91815500D01*
X127144236Y-91815500D01*
X127295764Y-91815500D01*
X127295766Y-91815500D01*
X127442135Y-91776281D01*
X127442137Y-91776279D01*
X127442139Y-91776279D01*
X127573360Y-91700518D01*
X127573360Y-91700517D01*
X127573365Y-91700515D01*
X127680515Y-91593365D01*
X127700785Y-91558256D01*
X127756279Y-91462139D01*
X127756279Y-91462137D01*
X127756281Y-91462135D01*
X127795500Y-91315766D01*
X127795500Y-91164234D01*
X127756281Y-91017865D01*
X127756279Y-91017862D01*
X127756279Y-91017860D01*
X127680518Y-90886639D01*
X127680516Y-90886637D01*
X127680515Y-90886635D01*
X127573365Y-90779485D01*
X127573362Y-90779483D01*
X127573360Y-90779481D01*
X127442138Y-90703720D01*
X127442140Y-90703720D01*
X127385347Y-90688503D01*
X127295766Y-90664500D01*
X127179500Y-90664500D01*
X127121309Y-90645593D01*
X127085345Y-90596093D01*
X127080500Y-90565500D01*
X127080500Y-90556380D01*
X127080499Y-90556343D01*
X127080465Y-90555720D01*
X127079322Y-90534393D01*
X127076488Y-90508035D01*
X127064508Y-90469776D01*
X127052530Y-90431520D01*
X127052529Y-90431518D01*
X127019044Y-90370195D01*
X126983991Y-90323371D01*
X126956129Y-90295509D01*
X126956122Y-90295502D01*
X126953335Y-90292998D01*
X126922686Y-90240043D01*
X126920500Y-90219356D01*
X126920500Y-89930253D01*
X126920498Y-89930241D01*
X126908379Y-89869315D01*
X126908379Y-89830685D01*
X126920498Y-89769758D01*
X126920500Y-89769746D01*
X126920500Y-89549500D01*
X126939407Y-89491309D01*
X126988907Y-89455345D01*
X127019500Y-89450500D01*
X127066142Y-89450500D01*
X127066144Y-89450500D01*
X127155288Y-89426614D01*
X127175970Y-89414673D01*
X127235212Y-89380470D01*
X127580470Y-89035212D01*
X127626614Y-88955288D01*
X127650500Y-88866144D01*
X127650500Y-88773856D01*
X127650500Y-88496710D01*
X127669407Y-88438519D01*
X127674666Y-88431896D01*
X127725377Y-88373373D01*
X127785165Y-88242457D01*
X127804116Y-88110647D01*
X127805647Y-88100002D01*
X127805647Y-88099997D01*
X127785165Y-87957543D01*
X127760939Y-87904496D01*
X127725377Y-87826627D01*
X127631128Y-87717857D01*
X127631127Y-87717856D01*
X127631126Y-87717855D01*
X127510057Y-87640049D01*
X127510054Y-87640047D01*
X127510053Y-87640047D01*
X127510050Y-87640046D01*
X127371964Y-87599500D01*
X127371961Y-87599500D01*
X127228039Y-87599500D01*
X127228035Y-87599500D01*
X127089949Y-87640046D01*
X127089942Y-87640049D01*
X127073023Y-87650923D01*
X127013848Y-87666478D01*
X126956832Y-87644279D01*
X126923752Y-87592806D01*
X126920500Y-87567639D01*
X126920500Y-87430252D01*
X126920498Y-87430241D01*
X126908379Y-87369315D01*
X126908379Y-87330685D01*
X126920498Y-87269758D01*
X126920500Y-87269746D01*
X126920500Y-86930253D01*
X126920498Y-86930241D01*
X126908379Y-86869315D01*
X126908379Y-86830685D01*
X126920498Y-86769758D01*
X126920500Y-86769746D01*
X126920500Y-86552475D01*
X126939407Y-86494284D01*
X126972055Y-86465585D01*
X126996744Y-86452104D01*
X127043568Y-86417051D01*
X127140393Y-86320226D01*
X127148776Y-86311329D01*
X127158565Y-86300300D01*
X127195652Y-86240264D01*
X127221620Y-86175399D01*
X127229517Y-86151537D01*
X127230398Y-86125627D01*
X127251273Y-86068115D01*
X127301967Y-86033855D01*
X127303616Y-86033396D01*
X127442135Y-85996281D01*
X127573365Y-85920515D01*
X127680515Y-85813365D01*
X127731838Y-85724471D01*
X127756279Y-85682139D01*
X127756279Y-85682137D01*
X127756281Y-85682135D01*
X127795500Y-85535766D01*
X127795500Y-85384234D01*
X127756281Y-85237865D01*
X127756279Y-85237862D01*
X127756279Y-85237860D01*
X127680518Y-85106639D01*
X127680516Y-85106637D01*
X127680515Y-85106635D01*
X127573365Y-84999485D01*
X127573362Y-84999483D01*
X127573360Y-84999481D01*
X127442138Y-84923720D01*
X127442140Y-84923720D01*
X127385347Y-84908503D01*
X127295766Y-84884500D01*
X127144234Y-84884500D01*
X127054652Y-84908503D01*
X126997860Y-84923720D01*
X126866639Y-84999481D01*
X126759481Y-85106639D01*
X126683720Y-85237860D01*
X126683719Y-85237865D01*
X126661050Y-85322471D01*
X126660205Y-85325623D01*
X126626881Y-85376937D01*
X126569759Y-85398864D01*
X126564578Y-85399000D01*
X125629159Y-85399000D01*
X125570968Y-85380093D01*
X125561283Y-85372069D01*
X125561156Y-85371949D01*
X125556068Y-85367157D01*
X125511420Y-85342182D01*
X125476250Y-85322509D01*
X125476251Y-85322509D01*
X125409218Y-85302826D01*
X125409209Y-85302824D01*
X125362998Y-85296180D01*
X125351314Y-85294500D01*
X124676362Y-85294500D01*
X124676343Y-85294500D01*
X124654405Y-85295677D01*
X124654398Y-85295677D01*
X124654393Y-85295678D01*
X124645894Y-85296591D01*
X124628038Y-85298511D01*
X124628033Y-85298512D01*
X124551520Y-85322469D01*
X124490193Y-85355957D01*
X124443369Y-85391010D01*
X122891003Y-86943376D01*
X122876320Y-86959722D01*
X122876301Y-86959745D01*
X122859672Y-86980380D01*
X122822510Y-87051423D01*
X122822508Y-87051428D01*
X122802826Y-87118457D01*
X122802824Y-87118466D01*
X122794500Y-87176362D01*
X122794500Y-89990741D01*
X122775593Y-90048932D01*
X122726093Y-90084896D01*
X122695382Y-90089741D01*
X118441159Y-90084649D01*
X118382990Y-90065672D01*
X118371273Y-90055653D01*
X118320817Y-90005197D01*
X118264495Y-89948874D01*
X118236719Y-89894359D01*
X118235500Y-89878872D01*
X118235500Y-89761380D01*
X118235499Y-89761343D01*
X118235098Y-89753874D01*
X118234322Y-89739393D01*
X118231488Y-89713035D01*
X118207529Y-89636518D01*
X118174044Y-89575195D01*
X118138991Y-89528371D01*
X118056629Y-89446009D01*
X118056623Y-89446003D01*
X118040277Y-89431320D01*
X118040270Y-89431314D01*
X118040262Y-89431307D01*
X118021562Y-89416238D01*
X118019619Y-89414672D01*
X117948576Y-89377510D01*
X117948571Y-89377508D01*
X117881542Y-89357826D01*
X117881533Y-89357824D01*
X117835322Y-89351180D01*
X117823638Y-89349500D01*
X116346362Y-89349500D01*
X116346343Y-89349500D01*
X116324405Y-89350677D01*
X116324398Y-89350677D01*
X116324393Y-89350678D01*
X116315894Y-89351591D01*
X116298038Y-89353511D01*
X116298033Y-89353512D01*
X116221520Y-89377469D01*
X116160193Y-89410957D01*
X116113369Y-89446010D01*
X115986875Y-89572504D01*
X115972192Y-89588850D01*
X115972173Y-89588873D01*
X115955544Y-89609508D01*
X115918382Y-89680551D01*
X115918380Y-89680556D01*
X115898698Y-89747585D01*
X115898696Y-89747594D01*
X115890372Y-89805490D01*
X115890372Y-91169528D01*
X115891549Y-91191466D01*
X115891550Y-91191475D01*
X115894383Y-91217833D01*
X115894384Y-91217838D01*
X115918341Y-91294351D01*
X115922807Y-91302529D01*
X115951828Y-91355677D01*
X115962107Y-91369407D01*
X115986882Y-91402502D01*
X116190831Y-91606451D01*
X116214272Y-91643758D01*
X116246830Y-91736805D01*
X116248202Y-91797975D01*
X116223389Y-91839506D01*
X114978393Y-93084504D01*
X114923876Y-93112281D01*
X114908389Y-93113500D01*
X94641611Y-93113500D01*
X94583420Y-93094593D01*
X94571607Y-93084504D01*
X90528390Y-89041287D01*
X86480614Y-84993511D01*
X86480611Y-84993509D01*
X86480610Y-84993508D01*
X86480609Y-84993507D01*
X86377890Y-84934202D01*
X86377886Y-84934200D01*
X86353673Y-84927712D01*
X86353673Y-84927713D01*
X86263309Y-84903500D01*
X86263307Y-84903500D01*
X84990100Y-84903500D01*
X84938621Y-84889063D01*
X84931191Y-84884540D01*
X84466018Y-84601362D01*
X99369500Y-84601362D01*
X99369500Y-90558296D01*
X99369748Y-90565500D01*
X99369986Y-90572429D01*
X99371153Y-90589385D01*
X99371154Y-90589395D01*
X99388784Y-90659649D01*
X99417464Y-90723352D01*
X99417465Y-90723356D01*
X99448822Y-90772728D01*
X99448825Y-90772732D01*
X99828285Y-91215436D01*
X99849324Y-91236645D01*
X99876433Y-91260262D01*
X99876435Y-91260263D01*
X99876437Y-91260265D01*
X99950803Y-91301000D01*
X99953523Y-91302490D01*
X100020562Y-91322175D01*
X100078460Y-91330500D01*
X100078461Y-91330500D01*
X101398620Y-91330500D01*
X101398638Y-91330500D01*
X101420607Y-91329322D01*
X101446965Y-91326488D01*
X101523482Y-91302529D01*
X101584805Y-91269044D01*
X101631629Y-91233991D01*
X101631634Y-91233985D01*
X101631642Y-91233980D01*
X101634307Y-91231672D01*
X101635214Y-91232719D01*
X101685013Y-91207347D01*
X101745445Y-91216918D01*
X101788710Y-91260183D01*
X101799500Y-91305128D01*
X101799500Y-91558260D01*
X101804614Y-91593360D01*
X101809427Y-91626395D01*
X101845664Y-91700518D01*
X101860802Y-91731483D01*
X101943517Y-91814198D01*
X101995286Y-91839506D01*
X102048604Y-91865572D01*
X102048605Y-91865572D01*
X102048607Y-91865573D01*
X102116740Y-91875500D01*
X102116743Y-91875500D01*
X103358259Y-91875500D01*
X103358260Y-91875500D01*
X103406226Y-91868511D01*
X103466534Y-91878830D01*
X103509259Y-91922627D01*
X103519113Y-91964822D01*
X103519465Y-91964813D01*
X103519500Y-91966156D01*
X103520677Y-91988094D01*
X103520678Y-91988103D01*
X103523511Y-92014461D01*
X103523512Y-92014466D01*
X103547469Y-92090979D01*
X103547471Y-92090982D01*
X103576447Y-92144048D01*
X103580957Y-92152306D01*
X103616010Y-92199130D01*
X103688376Y-92271496D01*
X103704722Y-92286179D01*
X103704738Y-92286193D01*
X103725380Y-92302827D01*
X103796425Y-92339990D01*
X103796426Y-92339990D01*
X103796428Y-92339991D01*
X103796561Y-92340030D01*
X103863464Y-92359675D01*
X103921362Y-92368000D01*
X103921363Y-92368000D01*
X110971120Y-92368000D01*
X110971138Y-92368000D01*
X110993107Y-92366822D01*
X111019465Y-92363988D01*
X111095982Y-92340029D01*
X111157305Y-92306544D01*
X111204129Y-92271491D01*
X111358991Y-92116629D01*
X111373693Y-92100262D01*
X111390327Y-92079620D01*
X111425299Y-92012762D01*
X111469023Y-91969964D01*
X111529554Y-91961040D01*
X111583026Y-91988646D01*
X112053376Y-92458996D01*
X112069722Y-92473679D01*
X112069738Y-92473693D01*
X112090380Y-92490327D01*
X112161425Y-92527490D01*
X112161426Y-92527490D01*
X112161428Y-92527491D01*
X112161561Y-92527530D01*
X112228464Y-92547175D01*
X112286362Y-92555500D01*
X112286363Y-92555500D01*
X114356556Y-92555500D01*
X114356574Y-92555500D01*
X114378543Y-92554322D01*
X114404901Y-92551488D01*
X114481418Y-92527529D01*
X114542741Y-92494044D01*
X114589565Y-92458991D01*
X115258991Y-91789565D01*
X115273693Y-91773198D01*
X115290327Y-91752556D01*
X115327490Y-91681511D01*
X115347175Y-91614472D01*
X115355500Y-91556574D01*
X115355500Y-89676362D01*
X115354322Y-89654393D01*
X115351488Y-89628035D01*
X115334099Y-89572499D01*
X115327530Y-89551520D01*
X115326973Y-89550500D01*
X115294044Y-89490195D01*
X115258991Y-89443371D01*
X115079812Y-89264192D01*
X115052035Y-89209675D01*
X115061606Y-89149243D01*
X115104871Y-89105978D01*
X115134327Y-89096407D01*
X115208126Y-89084719D01*
X115328220Y-89023528D01*
X115423528Y-88928220D01*
X115484719Y-88808126D01*
X115500500Y-88708488D01*
X115500500Y-87891512D01*
X115484719Y-87791874D01*
X115484716Y-87791869D01*
X115484716Y-87791867D01*
X115423529Y-87671782D01*
X115423528Y-87671780D01*
X115328220Y-87576472D01*
X115328217Y-87576470D01*
X115208132Y-87515283D01*
X115208127Y-87515281D01*
X115208126Y-87515281D01*
X115174913Y-87510020D01*
X115108490Y-87499500D01*
X115108488Y-87499500D01*
X114715479Y-87499500D01*
X114657288Y-87480593D01*
X114645476Y-87470504D01*
X114409513Y-87234542D01*
X114409511Y-87234540D01*
X114378285Y-87216512D01*
X114378284Y-87216511D01*
X114378283Y-87216511D01*
X114340989Y-87194979D01*
X114340986Y-87194978D01*
X114264564Y-87174500D01*
X114264562Y-87174500D01*
X114008475Y-87174500D01*
X113950284Y-87155593D01*
X113920266Y-87120446D01*
X113918442Y-87116867D01*
X113903050Y-87086658D01*
X113813342Y-86996950D01*
X113700304Y-86939354D01*
X113700305Y-86939354D01*
X113606522Y-86924500D01*
X112993479Y-86924500D01*
X112993476Y-86924501D01*
X112899700Y-86939352D01*
X112899695Y-86939354D01*
X112786659Y-86996949D01*
X112696949Y-87086659D01*
X112679734Y-87120446D01*
X112636469Y-87163710D01*
X112591525Y-87174500D01*
X112349748Y-87174500D01*
X112291557Y-87155593D01*
X112261538Y-87120445D01*
X112259719Y-87116875D01*
X112259719Y-87116874D01*
X112198528Y-86996780D01*
X112103220Y-86901472D01*
X112103217Y-86901470D01*
X111983132Y-86840283D01*
X111983127Y-86840281D01*
X111983126Y-86840281D01*
X111949913Y-86835020D01*
X111883490Y-86824500D01*
X111883488Y-86824500D01*
X111316512Y-86824500D01*
X111316510Y-86824500D01*
X111216874Y-86840281D01*
X111216867Y-86840283D01*
X111096782Y-86901470D01*
X111001470Y-86996782D01*
X110940283Y-87116867D01*
X110940281Y-87116874D01*
X110924500Y-87216510D01*
X110924500Y-87733489D01*
X110927036Y-87749500D01*
X110939715Y-87829555D01*
X110940281Y-87833125D01*
X110940283Y-87833132D01*
X110989906Y-87930521D01*
X111001472Y-87953220D01*
X111096780Y-88048528D01*
X111096782Y-88048529D01*
X111216867Y-88109716D01*
X111216869Y-88109716D01*
X111216874Y-88109719D01*
X111292541Y-88121703D01*
X111316510Y-88125500D01*
X111316512Y-88125500D01*
X111883490Y-88125500D01*
X111904885Y-88122111D01*
X111983126Y-88109719D01*
X112103220Y-88048528D01*
X112198528Y-87953220D01*
X112259719Y-87833126D01*
X112259719Y-87833124D01*
X112261538Y-87829555D01*
X112304803Y-87786290D01*
X112349748Y-87775500D01*
X112543121Y-87775500D01*
X112601312Y-87794407D01*
X112637276Y-87843907D01*
X112637276Y-87843908D01*
X112639354Y-87850306D01*
X112693995Y-87957543D01*
X112696950Y-87963342D01*
X112786658Y-88053050D01*
X112899696Y-88110646D01*
X112993481Y-88125500D01*
X113606518Y-88125499D01*
X113606520Y-88125499D01*
X113606521Y-88125498D01*
X113653411Y-88118072D01*
X113700299Y-88110647D01*
X113700299Y-88110646D01*
X113700304Y-88110646D01*
X113813342Y-88053050D01*
X113903050Y-87963342D01*
X113960646Y-87850304D01*
X113960646Y-87850301D01*
X113962724Y-87843908D01*
X113998687Y-87794408D01*
X114056878Y-87775500D01*
X114059521Y-87775500D01*
X114117712Y-87794407D01*
X114129525Y-87804496D01*
X114170504Y-87845475D01*
X114198281Y-87899992D01*
X114199500Y-87915479D01*
X114199500Y-88705500D01*
X114180593Y-88763691D01*
X114131093Y-88799655D01*
X114100500Y-88804500D01*
X112091343Y-88804500D01*
X112069405Y-88805677D01*
X112069398Y-88805677D01*
X112069393Y-88805678D01*
X112060894Y-88806591D01*
X112043038Y-88808511D01*
X112043033Y-88808512D01*
X111966520Y-88832469D01*
X111905193Y-88865957D01*
X111858365Y-88901013D01*
X111445250Y-89314127D01*
X111390734Y-89341904D01*
X111330302Y-89332333D01*
X111296414Y-89298445D01*
X111293965Y-89300194D01*
X111289199Y-89293519D01*
X111289198Y-89293518D01*
X111289198Y-89293517D01*
X111206483Y-89210802D01*
X111204178Y-89209675D01*
X111101395Y-89159427D01*
X111074139Y-89155456D01*
X111033260Y-89149500D01*
X109791740Y-89149500D01*
X109757673Y-89154463D01*
X109723604Y-89159427D01*
X109618518Y-89210801D01*
X109535801Y-89293518D01*
X109535577Y-89293978D01*
X109535180Y-89294387D01*
X109531035Y-89300194D01*
X109530164Y-89299572D01*
X109493035Y-89337953D01*
X109446635Y-89349500D01*
X109199500Y-89349500D01*
X109141309Y-89330593D01*
X109105345Y-89281093D01*
X109100500Y-89250500D01*
X109100500Y-88745727D01*
X109100499Y-88745725D01*
X109097646Y-88715301D01*
X109052793Y-88587118D01*
X109049885Y-88583178D01*
X108972154Y-88477855D01*
X108972152Y-88477853D01*
X108972150Y-88477850D01*
X108972145Y-88477846D01*
X108972144Y-88477845D01*
X108862883Y-88397207D01*
X108766802Y-88363586D01*
X108718121Y-88326520D01*
X108700500Y-88270142D01*
X108700500Y-88131899D01*
X108719407Y-88073708D01*
X108729490Y-88061901D01*
X108778050Y-88013342D01*
X108835646Y-87900304D01*
X108850500Y-87806519D01*
X108850499Y-87343482D01*
X108846706Y-87319530D01*
X108835647Y-87249700D01*
X108835646Y-87249698D01*
X108835646Y-87249696D01*
X108778050Y-87136658D01*
X108688342Y-87046950D01*
X108575304Y-86989354D01*
X108575305Y-86989354D01*
X108481522Y-86974500D01*
X107868479Y-86974500D01*
X107868476Y-86974501D01*
X107774700Y-86989352D01*
X107774695Y-86989354D01*
X107661659Y-87046949D01*
X107571949Y-87136659D01*
X107514354Y-87249695D01*
X107499500Y-87343477D01*
X107499500Y-87806520D01*
X107499501Y-87806523D01*
X107514352Y-87900299D01*
X107514354Y-87900304D01*
X107571950Y-88013342D01*
X107661658Y-88103050D01*
X107774696Y-88160646D01*
X107868481Y-88175500D01*
X107988049Y-88175499D01*
X108046239Y-88194406D01*
X108082203Y-88243906D01*
X108082204Y-88305091D01*
X108046240Y-88354591D01*
X108020747Y-88367943D01*
X107937116Y-88397207D01*
X107827855Y-88477845D01*
X107827845Y-88477855D01*
X107747207Y-88587116D01*
X107702355Y-88715296D01*
X107702353Y-88715305D01*
X107699500Y-88745725D01*
X107699500Y-89354274D01*
X107702353Y-89384694D01*
X107702355Y-89384703D01*
X107747207Y-89512883D01*
X107827845Y-89622144D01*
X107827847Y-89622146D01*
X107827850Y-89622150D01*
X107827853Y-89622152D01*
X107827855Y-89622154D01*
X107937116Y-89702792D01*
X107937117Y-89702792D01*
X107937118Y-89702793D01*
X108065301Y-89747646D01*
X108095725Y-89750499D01*
X108095727Y-89750500D01*
X108095734Y-89750500D01*
X108634521Y-89750500D01*
X108692712Y-89769407D01*
X108704525Y-89779496D01*
X108759540Y-89834511D01*
X108759539Y-89834511D01*
X108815489Y-89890460D01*
X108884007Y-89930019D01*
X108884011Y-89930021D01*
X108960435Y-89950499D01*
X108960437Y-89950500D01*
X108960438Y-89950500D01*
X109039562Y-89950500D01*
X109446635Y-89950500D01*
X109504826Y-89969407D01*
X109530610Y-90000108D01*
X109531035Y-89999806D01*
X109534884Y-90005197D01*
X109535576Y-90006020D01*
X109535802Y-90006483D01*
X109618517Y-90089198D01*
X109672285Y-90115483D01*
X109723604Y-90140572D01*
X109723605Y-90140572D01*
X109723607Y-90140573D01*
X109791740Y-90150500D01*
X109791743Y-90150500D01*
X111020500Y-90150500D01*
X111078691Y-90169407D01*
X111114655Y-90218907D01*
X111119500Y-90249500D01*
X111119500Y-90451945D01*
X111100593Y-90510136D01*
X111051093Y-90546100D01*
X110989907Y-90546100D01*
X110974614Y-90539669D01*
X110903573Y-90502509D01*
X110903571Y-90502508D01*
X110836542Y-90482826D01*
X110836533Y-90482824D01*
X110790322Y-90476180D01*
X110778638Y-90474500D01*
X110778637Y-90474500D01*
X105676128Y-90474500D01*
X105617937Y-90455593D01*
X105606124Y-90445504D01*
X105534496Y-90373876D01*
X105506719Y-90319359D01*
X105505500Y-90303872D01*
X105505500Y-90125510D01*
X105503007Y-90093610D01*
X105503006Y-90093609D01*
X105503006Y-90093598D01*
X105497023Y-90055547D01*
X105484146Y-90022997D01*
X105463915Y-89971860D01*
X105463911Y-89971852D01*
X105435564Y-89930194D01*
X105418459Y-89871449D01*
X105439151Y-89813868D01*
X105489736Y-89779447D01*
X105517412Y-89775500D01*
X106014563Y-89775500D01*
X106014563Y-89775499D01*
X106058754Y-89763658D01*
X106095271Y-89753874D01*
X106120895Y-89750500D01*
X106704273Y-89750500D01*
X106704273Y-89750499D01*
X106734699Y-89747646D01*
X106862882Y-89702793D01*
X106972150Y-89622150D01*
X107052793Y-89512882D01*
X107097646Y-89384699D01*
X107100499Y-89354273D01*
X107100500Y-89354273D01*
X107100500Y-88745727D01*
X107100499Y-88745725D01*
X107097646Y-88715301D01*
X107052793Y-88587118D01*
X107049885Y-88583178D01*
X106972154Y-88477855D01*
X106972152Y-88477853D01*
X106972150Y-88477850D01*
X106972145Y-88477846D01*
X106972144Y-88477845D01*
X106862883Y-88397207D01*
X106734703Y-88352355D01*
X106734694Y-88352353D01*
X106704274Y-88349500D01*
X106704266Y-88349500D01*
X106692022Y-88349500D01*
X106633831Y-88330593D01*
X106597867Y-88281093D01*
X106597867Y-88219907D01*
X106633831Y-88170407D01*
X106647076Y-88162291D01*
X106670217Y-88150500D01*
X106763342Y-88103050D01*
X106853050Y-88013342D01*
X106910646Y-87900304D01*
X106925500Y-87806519D01*
X106925499Y-87343482D01*
X106921706Y-87319530D01*
X106910647Y-87249700D01*
X106910646Y-87249698D01*
X106910646Y-87249696D01*
X106853050Y-87136658D01*
X106763342Y-87046950D01*
X106650304Y-86989354D01*
X106650305Y-86989354D01*
X106556522Y-86974500D01*
X105943479Y-86974500D01*
X105943476Y-86974501D01*
X105849700Y-86989352D01*
X105849695Y-86989354D01*
X105736659Y-87046949D01*
X105736658Y-87046950D01*
X105646950Y-87136658D01*
X105604257Y-87220446D01*
X105560994Y-87263710D01*
X105516049Y-87274500D01*
X105306879Y-87274500D01*
X105248688Y-87255593D01*
X105212724Y-87206093D01*
X105212724Y-87206092D01*
X105210645Y-87199693D01*
X105168442Y-87116867D01*
X105153050Y-87086658D01*
X105063342Y-86996950D01*
X104950304Y-86939354D01*
X104950305Y-86939354D01*
X104856522Y-86924500D01*
X104393479Y-86924500D01*
X104393476Y-86924501D01*
X104299700Y-86939352D01*
X104299695Y-86939354D01*
X104186659Y-86996949D01*
X104096949Y-87086659D01*
X104039354Y-87199695D01*
X104024500Y-87293477D01*
X104024500Y-87906520D01*
X104024501Y-87906523D01*
X104039352Y-88000299D01*
X104039354Y-88000304D01*
X104096950Y-88113342D01*
X104186658Y-88203050D01*
X104299696Y-88260646D01*
X104393481Y-88275500D01*
X104856518Y-88275499D01*
X104856520Y-88275499D01*
X104856521Y-88275498D01*
X104903411Y-88268072D01*
X104950299Y-88260647D01*
X104950299Y-88260646D01*
X104950304Y-88260646D01*
X105063342Y-88203050D01*
X105153050Y-88113342D01*
X105210646Y-88000304D01*
X105216500Y-87963342D01*
X105217186Y-87959013D01*
X105244964Y-87904496D01*
X105299480Y-87876719D01*
X105314967Y-87875500D01*
X105516049Y-87875500D01*
X105574240Y-87894407D01*
X105604257Y-87929552D01*
X105646950Y-88013342D01*
X105736658Y-88103050D01*
X105849696Y-88160646D01*
X105865986Y-88163226D01*
X105920503Y-88191003D01*
X105948281Y-88245519D01*
X105949500Y-88261007D01*
X105949500Y-88338091D01*
X105930593Y-88396282D01*
X105909288Y-88417746D01*
X105827854Y-88477846D01*
X105827845Y-88477855D01*
X105747207Y-88587116D01*
X105702355Y-88715296D01*
X105702353Y-88715305D01*
X105699500Y-88745725D01*
X105699500Y-89075500D01*
X105680593Y-89133691D01*
X105631093Y-89169655D01*
X105600500Y-89174500D01*
X105399748Y-89174500D01*
X105341557Y-89155593D01*
X105311538Y-89120445D01*
X105309719Y-89116875D01*
X105309719Y-89116874D01*
X105248528Y-88996780D01*
X105153220Y-88901472D01*
X105153217Y-88901470D01*
X105033132Y-88840283D01*
X105033127Y-88840281D01*
X105033126Y-88840281D01*
X104999913Y-88835020D01*
X104933490Y-88824500D01*
X104933488Y-88824500D01*
X104366512Y-88824500D01*
X104366510Y-88824500D01*
X104266872Y-88840281D01*
X104266425Y-88840427D01*
X104265954Y-88840426D01*
X104259180Y-88841500D01*
X104259009Y-88840426D01*
X104205240Y-88840423D01*
X104161189Y-88811213D01*
X104161183Y-88811220D01*
X104161157Y-88811191D01*
X104161020Y-88811101D01*
X104160178Y-88810129D01*
X104160172Y-88810123D01*
X104160162Y-88810111D01*
X104142571Y-88792157D01*
X104142570Y-88792156D01*
X104142569Y-88792155D01*
X104142567Y-88792153D01*
X104062758Y-88747511D01*
X104062754Y-88747509D01*
X103995721Y-88727826D01*
X103995712Y-88727824D01*
X103949501Y-88721180D01*
X103937817Y-88719500D01*
X103937816Y-88719500D01*
X102519478Y-88719500D01*
X102461287Y-88700593D01*
X102425323Y-88651093D01*
X102425323Y-88589907D01*
X102449474Y-88550497D01*
X102632027Y-88367943D01*
X102695475Y-88304494D01*
X102749990Y-88276718D01*
X102765464Y-88275499D01*
X103206518Y-88275499D01*
X103206521Y-88275499D01*
X103206522Y-88275498D01*
X103253411Y-88268072D01*
X103300299Y-88260647D01*
X103300299Y-88260646D01*
X103300304Y-88260646D01*
X103413342Y-88203050D01*
X103503050Y-88113342D01*
X103560646Y-88000304D01*
X103575500Y-87906519D01*
X103575499Y-87293482D01*
X103575498Y-87293478D01*
X103575498Y-87293476D01*
X103560647Y-87199700D01*
X103560646Y-87199698D01*
X103560646Y-87199696D01*
X103503050Y-87086658D01*
X103413342Y-86996950D01*
X103300304Y-86939354D01*
X103300305Y-86939354D01*
X103206522Y-86924500D01*
X102743479Y-86924500D01*
X102743476Y-86924501D01*
X102649700Y-86939352D01*
X102649695Y-86939354D01*
X102536659Y-86996949D01*
X102446949Y-87086659D01*
X102389354Y-87199695D01*
X102374500Y-87293478D01*
X102374500Y-87734521D01*
X102355593Y-87792712D01*
X102345509Y-87804518D01*
X102174563Y-87975466D01*
X102149504Y-88000525D01*
X102094987Y-88028302D01*
X102034555Y-88018731D01*
X101991290Y-87975466D01*
X101980500Y-87930521D01*
X101980500Y-85176127D01*
X101999407Y-85117936D01*
X102009496Y-85106123D01*
X103481123Y-83634496D01*
X103535640Y-83606719D01*
X103551127Y-83605500D01*
X109978735Y-83605500D01*
X110036926Y-83624407D01*
X110072890Y-83673907D01*
X110072890Y-83735093D01*
X110072179Y-83737198D01*
X110027355Y-83865296D01*
X110027353Y-83865305D01*
X110024500Y-83895725D01*
X110024500Y-84434521D01*
X110005593Y-84492712D01*
X109995504Y-84504525D01*
X109615489Y-84884540D01*
X109615488Y-84884539D01*
X109559539Y-84940489D01*
X109519980Y-85009007D01*
X109519978Y-85009011D01*
X109499500Y-85085435D01*
X109499500Y-85213992D01*
X109480593Y-85272183D01*
X109431093Y-85308147D01*
X109415987Y-85311773D01*
X109399699Y-85314352D01*
X109399695Y-85314354D01*
X109286659Y-85371949D01*
X109196949Y-85461659D01*
X109139354Y-85574695D01*
X109124500Y-85668477D01*
X109124500Y-86131520D01*
X109124501Y-86131523D01*
X109139352Y-86225299D01*
X109139354Y-86225304D01*
X109196950Y-86338342D01*
X109286658Y-86428050D01*
X109399696Y-86485646D01*
X109493481Y-86500500D01*
X110106518Y-86500499D01*
X110106520Y-86500499D01*
X110106521Y-86500498D01*
X110174043Y-86489805D01*
X110200299Y-86485647D01*
X110200299Y-86485646D01*
X110200304Y-86485646D01*
X110313342Y-86428050D01*
X110403050Y-86338342D01*
X110460646Y-86225304D01*
X110475500Y-86131519D01*
X110475499Y-85668482D01*
X110463621Y-85593481D01*
X110460647Y-85574700D01*
X110460646Y-85574698D01*
X110460646Y-85574696D01*
X110403050Y-85461658D01*
X110313342Y-85371950D01*
X110293292Y-85361734D01*
X110212615Y-85320626D01*
X110169351Y-85277361D01*
X110159780Y-85216929D01*
X110187558Y-85162413D01*
X110420476Y-84929496D01*
X110474992Y-84901719D01*
X110490479Y-84900500D01*
X111029273Y-84900500D01*
X111029273Y-84900499D01*
X111059699Y-84897646D01*
X111167802Y-84859818D01*
X111228972Y-84858446D01*
X111279267Y-84893289D01*
X111299475Y-84951041D01*
X111299500Y-84953263D01*
X111299500Y-85192640D01*
X111280593Y-85250831D01*
X111231093Y-85286795D01*
X111217721Y-85290005D01*
X111216870Y-85290282D01*
X111096782Y-85351470D01*
X111001470Y-85446782D01*
X110940283Y-85566867D01*
X110940281Y-85566874D01*
X110924500Y-85666510D01*
X110924500Y-86183489D01*
X110940281Y-86283125D01*
X110940283Y-86283132D01*
X111001385Y-86403050D01*
X111001472Y-86403220D01*
X111096780Y-86498528D01*
X111096782Y-86498529D01*
X111216867Y-86559716D01*
X111216869Y-86559716D01*
X111216874Y-86559719D01*
X111292541Y-86571703D01*
X111316510Y-86575500D01*
X111316512Y-86575500D01*
X111883490Y-86575500D01*
X111904885Y-86572111D01*
X111983126Y-86559719D01*
X112103220Y-86498528D01*
X112198528Y-86403220D01*
X112259719Y-86283126D01*
X112275500Y-86183488D01*
X112275500Y-85666512D01*
X112274395Y-85659538D01*
X112264886Y-85599500D01*
X112259719Y-85566874D01*
X112259716Y-85566869D01*
X112259716Y-85566867D01*
X112198529Y-85446782D01*
X112198528Y-85446780D01*
X112103220Y-85351472D01*
X112103217Y-85351470D01*
X111983129Y-85290282D01*
X111975718Y-85287874D01*
X111976185Y-85286434D01*
X111929491Y-85262638D01*
X111901718Y-85208119D01*
X111900500Y-85192640D01*
X111900500Y-83460437D01*
X111900499Y-83460435D01*
X111899900Y-83458201D01*
X111880021Y-83384011D01*
X111840460Y-83315489D01*
X111816375Y-83291404D01*
X111784511Y-83259539D01*
X111784511Y-83259540D01*
X111762455Y-83237484D01*
X111734678Y-83182967D01*
X111737470Y-83139586D01*
X111747175Y-83106536D01*
X111755500Y-83048638D01*
X111755500Y-82276362D01*
X111754322Y-82254393D01*
X111751488Y-82228035D01*
X111727529Y-82151518D01*
X111694044Y-82090195D01*
X111658991Y-82043371D01*
X111431629Y-81816009D01*
X111431623Y-81816003D01*
X111415277Y-81801320D01*
X111415270Y-81801314D01*
X111415262Y-81801307D01*
X111394620Y-81784673D01*
X111394619Y-81784672D01*
X111323576Y-81747510D01*
X111323571Y-81747508D01*
X111256542Y-81727826D01*
X111256533Y-81727824D01*
X111210322Y-81721180D01*
X111198638Y-81719500D01*
X102251362Y-81719500D01*
X102251343Y-81719500D01*
X102229405Y-81720677D01*
X102229398Y-81720677D01*
X102229393Y-81720678D01*
X102220894Y-81721591D01*
X102203038Y-81723511D01*
X102203033Y-81723512D01*
X102126520Y-81747469D01*
X102065193Y-81780957D01*
X102018369Y-81816010D01*
X99466003Y-84368376D01*
X99451320Y-84384722D01*
X99451301Y-84384745D01*
X99434672Y-84405380D01*
X99397510Y-84476423D01*
X99397508Y-84476428D01*
X99377826Y-84543457D01*
X99377824Y-84543466D01*
X99372468Y-84580717D01*
X99369500Y-84601362D01*
X84466018Y-84601362D01*
X83945547Y-84284521D01*
X83893321Y-84252728D01*
X83881995Y-84244693D01*
X83836454Y-84207318D01*
X83836448Y-84207314D01*
X83685767Y-84126772D01*
X83684306Y-84125975D01*
X83680029Y-84123591D01*
X83680012Y-84123582D01*
X83680006Y-84123579D01*
X83678440Y-84122783D01*
X83678008Y-84122569D01*
X83675230Y-84121140D01*
X83653958Y-84109769D01*
X83455934Y-84049699D01*
X83455929Y-84049698D01*
X83250003Y-84029417D01*
X83249997Y-84029417D01*
X83044070Y-84049698D01*
X83044065Y-84049699D01*
X82846045Y-84109768D01*
X82663547Y-84207316D01*
X82503595Y-84338585D01*
X82503585Y-84338595D01*
X82372316Y-84498547D01*
X82274768Y-84681045D01*
X82214699Y-84879065D01*
X82214698Y-84879070D01*
X82194417Y-85084996D01*
X81835722Y-85084996D01*
X81835722Y-82544996D01*
X82194417Y-82544996D01*
X82194417Y-82545003D01*
X82214698Y-82750929D01*
X82214699Y-82750934D01*
X82274768Y-82948954D01*
X82372316Y-83131452D01*
X82439975Y-83213895D01*
X82503590Y-83291410D01*
X82503595Y-83291414D01*
X82663547Y-83422683D01*
X82663548Y-83422683D01*
X82663550Y-83422685D01*
X82846046Y-83520232D01*
X82964015Y-83556017D01*
X83044065Y-83580300D01*
X83044070Y-83580301D01*
X83249997Y-83600583D01*
X83250000Y-83600583D01*
X83250003Y-83600583D01*
X83455929Y-83580301D01*
X83455934Y-83580300D01*
X83653954Y-83520232D01*
X83836450Y-83422685D01*
X83996410Y-83291410D01*
X84127685Y-83131450D01*
X84225232Y-82948954D01*
X84285300Y-82750934D01*
X84285301Y-82750929D01*
X84305583Y-82545003D01*
X84305583Y-82544996D01*
X84285301Y-82339070D01*
X84285300Y-82339065D01*
X84251620Y-82228038D01*
X84225232Y-82141046D01*
X84127685Y-81958550D01*
X84121876Y-81951472D01*
X83996414Y-81798595D01*
X83996410Y-81798590D01*
X83974923Y-81780956D01*
X83836452Y-81667316D01*
X83653954Y-81569768D01*
X83455934Y-81509699D01*
X83455929Y-81509698D01*
X83250003Y-81489417D01*
X83249997Y-81489417D01*
X83044070Y-81509698D01*
X83044065Y-81509699D01*
X82846045Y-81569768D01*
X82663547Y-81667316D01*
X82503595Y-81798585D01*
X82503585Y-81798595D01*
X82372316Y-81958547D01*
X82274768Y-82141045D01*
X82214699Y-82339065D01*
X82214698Y-82339070D01*
X82194417Y-82544996D01*
X81835722Y-82544996D01*
X81835722Y-80004996D01*
X82194417Y-80004996D01*
X82194417Y-80005003D01*
X82214698Y-80210929D01*
X82214699Y-80210934D01*
X82274768Y-80408954D01*
X82372316Y-80591452D01*
X82415015Y-80643481D01*
X82503590Y-80751410D01*
X82503595Y-80751414D01*
X82663547Y-80882683D01*
X82663548Y-80882683D01*
X82663550Y-80882685D01*
X82846046Y-80980232D01*
X82983997Y-81022078D01*
X83044065Y-81040300D01*
X83044070Y-81040301D01*
X83249997Y-81060583D01*
X83250000Y-81060583D01*
X83250003Y-81060583D01*
X83455929Y-81040301D01*
X83455934Y-81040300D01*
X83479646Y-81033107D01*
X83653954Y-80980232D01*
X83836450Y-80882685D01*
X83996410Y-80751410D01*
X84127685Y-80591450D01*
X84225232Y-80408954D01*
X84285300Y-80210934D01*
X84285301Y-80210929D01*
X84305583Y-80005003D01*
X84305583Y-80004996D01*
X84285301Y-79799070D01*
X84285300Y-79799065D01*
X84267078Y-79738997D01*
X84225232Y-79601046D01*
X84127685Y-79418550D01*
X84117831Y-79406543D01*
X84017663Y-79284487D01*
X83996410Y-79258590D01*
X83903259Y-79182143D01*
X83836452Y-79127316D01*
X83653954Y-79029768D01*
X83455934Y-78969699D01*
X83455929Y-78969698D01*
X83250003Y-78949417D01*
X83249997Y-78949417D01*
X83044070Y-78969698D01*
X83044065Y-78969699D01*
X82846045Y-79029768D01*
X82663547Y-79127316D01*
X82503595Y-79258585D01*
X82503585Y-79258595D01*
X82372316Y-79418547D01*
X82274768Y-79601045D01*
X82214699Y-79799065D01*
X82214698Y-79799070D01*
X82194417Y-80004996D01*
X81835722Y-80004996D01*
X81835722Y-75995349D01*
X81854629Y-75937158D01*
X81904129Y-75901194D01*
X81965315Y-75901194D01*
X82004723Y-75925343D01*
X82383383Y-76304003D01*
X82383392Y-76304011D01*
X82383393Y-76304012D01*
X82399712Y-76318674D01*
X82399718Y-76318679D01*
X82399726Y-76318686D01*
X82420343Y-76335305D01*
X82491369Y-76372474D01*
X82558404Y-76392174D01*
X82616297Y-76400512D01*
X103389517Y-76405389D01*
X103447702Y-76424310D01*
X103482936Y-76471691D01*
X103523301Y-76587047D01*
X103603939Y-76696308D01*
X103603941Y-76696310D01*
X103603944Y-76696314D01*
X103603947Y-76696316D01*
X103603949Y-76696318D01*
X103713210Y-76776956D01*
X103713211Y-76776956D01*
X103713212Y-76776957D01*
X103841395Y-76821810D01*
X103871819Y-76824663D01*
X103871821Y-76824664D01*
X103871828Y-76824664D01*
X104243220Y-76824664D01*
X104301411Y-76843571D01*
X104337375Y-76893071D01*
X104342220Y-76923664D01*
X104342220Y-77030000D01*
X104342221Y-77030000D01*
X109199999Y-77030000D01*
X109200000Y-77030000D01*
X109200000Y-76923664D01*
X109218907Y-76865473D01*
X109268407Y-76829509D01*
X109299000Y-76824664D01*
X109680367Y-76824664D01*
X109680367Y-76824663D01*
X109710793Y-76821810D01*
X109838976Y-76776957D01*
X109948244Y-76696314D01*
X110028887Y-76587046D01*
X110064116Y-76486366D01*
X110101181Y-76437687D01*
X110159781Y-76420090D01*
X110217533Y-76440298D01*
X110252377Y-76490593D01*
X110253179Y-76493414D01*
X110260309Y-76520023D01*
X110269183Y-76553143D01*
X110312031Y-76627357D01*
X110312035Y-76627362D01*
X110461630Y-76776957D01*
X110585503Y-76900829D01*
X110613281Y-76955346D01*
X110614500Y-76970832D01*
X110614500Y-77159895D01*
X110614501Y-77159907D01*
X110621027Y-77209486D01*
X110621027Y-77209488D01*
X110671774Y-77318313D01*
X110671775Y-77318314D01*
X110671776Y-77318316D01*
X110756684Y-77403224D01*
X110756685Y-77403224D01*
X110756686Y-77403225D01*
X110761359Y-77405404D01*
X110865513Y-77453972D01*
X110915099Y-77460500D01*
X111274900Y-77460499D01*
X111324487Y-77453972D01*
X111324488Y-77453972D01*
X111386152Y-77425217D01*
X111433316Y-77403224D01*
X111504998Y-77331541D01*
X111559513Y-77303766D01*
X111619945Y-77313337D01*
X111645000Y-77331540D01*
X111707354Y-77393894D01*
X111735130Y-77448409D01*
X111727403Y-77505020D01*
X111714836Y-77532539D01*
X111714833Y-77532547D01*
X111694353Y-77674997D01*
X111694353Y-77675002D01*
X111714834Y-77817456D01*
X111774622Y-77948371D01*
X111774623Y-77948373D01*
X111868872Y-78057143D01*
X111868873Y-78057144D01*
X111989942Y-78134950D01*
X111989947Y-78134953D01*
X112128039Y-78175500D01*
X112134833Y-78177495D01*
X112134227Y-78179556D01*
X112180030Y-78202070D01*
X112208590Y-78256181D01*
X112199890Y-78316744D01*
X112164566Y-78356358D01*
X112068872Y-78417857D01*
X111974622Y-78526628D01*
X111914834Y-78657543D01*
X111894353Y-78799997D01*
X111894353Y-78800002D01*
X111914834Y-78942456D01*
X111954709Y-79029768D01*
X111974623Y-79073373D01*
X112021364Y-79127315D01*
X112068873Y-79182144D01*
X112150962Y-79234899D01*
X112189947Y-79259953D01*
X112273507Y-79284488D01*
X112328035Y-79300499D01*
X112328036Y-79300499D01*
X112328039Y-79300500D01*
X112328041Y-79300500D01*
X112471960Y-79300500D01*
X112471961Y-79300500D01*
X112471962Y-79300499D01*
X112471966Y-79300499D01*
X112484012Y-79296962D01*
X112545172Y-79298708D01*
X112593626Y-79336070D01*
X112601629Y-79350112D01*
X112621774Y-79393313D01*
X112621775Y-79393314D01*
X112621776Y-79393316D01*
X112706684Y-79478224D01*
X112815513Y-79528972D01*
X112865099Y-79535500D01*
X113224900Y-79535499D01*
X113274487Y-79528972D01*
X113274488Y-79528972D01*
X113333137Y-79501622D01*
X113383316Y-79478224D01*
X113454998Y-79406541D01*
X113509513Y-79378766D01*
X113569945Y-79388337D01*
X113595000Y-79406540D01*
X113666684Y-79478224D01*
X113775513Y-79528972D01*
X113825099Y-79535500D01*
X114184900Y-79535499D01*
X114234487Y-79528972D01*
X114234488Y-79528972D01*
X114293137Y-79501622D01*
X114343316Y-79478224D01*
X114428224Y-79393316D01*
X114478972Y-79284487D01*
X114485500Y-79234901D01*
X114485499Y-78815100D01*
X114484999Y-78811305D01*
X114478972Y-78765513D01*
X114478972Y-78765511D01*
X114428225Y-78656686D01*
X114428224Y-78656685D01*
X114428224Y-78656684D01*
X114383005Y-78611465D01*
X114355230Y-78556951D01*
X114364801Y-78496519D01*
X114383005Y-78471463D01*
X114449065Y-78405404D01*
X114499068Y-78298173D01*
X114505500Y-78249316D01*
X114505500Y-77800684D01*
X114499068Y-77751827D01*
X114476142Y-77702663D01*
X114449066Y-77644598D01*
X114449065Y-77644597D01*
X114449065Y-77644596D01*
X114399470Y-77595001D01*
X114371695Y-77540487D01*
X114381266Y-77480055D01*
X114399469Y-77454999D01*
X114449065Y-77405404D01*
X114499068Y-77298173D01*
X114505500Y-77249316D01*
X114505500Y-76800684D01*
X114499068Y-76751827D01*
X114485396Y-76722508D01*
X114449066Y-76644598D01*
X114449065Y-76644597D01*
X114449065Y-76644596D01*
X114365404Y-76560935D01*
X114365402Y-76560934D01*
X114365401Y-76560933D01*
X114362658Y-76559654D01*
X114359896Y-76557078D01*
X114358309Y-76555967D01*
X114358465Y-76555743D01*
X114317911Y-76517924D01*
X114305500Y-76469931D01*
X114305500Y-76147450D01*
X114324407Y-76089259D01*
X114373907Y-76053295D01*
X114390216Y-76049486D01*
X114451393Y-76040573D01*
X114556483Y-75989198D01*
X114639198Y-75906483D01*
X114690573Y-75801393D01*
X114700500Y-75733260D01*
X114700500Y-75366740D01*
X114690573Y-75298607D01*
X114673027Y-75262715D01*
X114665824Y-75247981D01*
X114657252Y-75187399D01*
X114685927Y-75133349D01*
X114740895Y-75106476D01*
X114754764Y-75105500D01*
X115459403Y-75105500D01*
X115517594Y-75124407D01*
X115546531Y-75157492D01*
X115563798Y-75189495D01*
X115590430Y-75229129D01*
X115594186Y-75233693D01*
X115615687Y-75259822D01*
X115620005Y-75264140D01*
X115647781Y-75318655D01*
X115649000Y-75334142D01*
X115649000Y-75335715D01*
X115653053Y-75376327D01*
X115662739Y-75424372D01*
X115674738Y-75463383D01*
X115781403Y-75717173D01*
X115837601Y-75850884D01*
X115838823Y-75853728D01*
X115840347Y-75857203D01*
X115840353Y-75857215D01*
X115873239Y-75909247D01*
X115873241Y-75909249D01*
X115918996Y-75962053D01*
X115919008Y-75962065D01*
X115936588Y-75980008D01*
X115936590Y-75980010D01*
X116016399Y-76024652D01*
X116016403Y-76024654D01*
X116083436Y-76044337D01*
X116083443Y-76044339D01*
X116141341Y-76052664D01*
X116171036Y-76052664D01*
X116229227Y-76071571D01*
X116241040Y-76081660D01*
X116365504Y-76206124D01*
X116393281Y-76260641D01*
X116394500Y-76276128D01*
X116394500Y-81011156D01*
X116395677Y-81033094D01*
X116395678Y-81033107D01*
X116396778Y-81043338D01*
X116398511Y-81059462D01*
X116398512Y-81059465D01*
X116422471Y-81135981D01*
X116440063Y-81168198D01*
X116455960Y-81197311D01*
X116488794Y-81241171D01*
X116508531Y-81299086D01*
X116490457Y-81357541D01*
X116441476Y-81394208D01*
X116409541Y-81399500D01*
X114290479Y-81399500D01*
X114232288Y-81380593D01*
X114220475Y-81370504D01*
X114004495Y-81154524D01*
X113976718Y-81100007D01*
X113975499Y-81084532D01*
X113975499Y-80643482D01*
X113960646Y-80549696D01*
X113903050Y-80436658D01*
X113813342Y-80346950D01*
X113700304Y-80289354D01*
X113700305Y-80289354D01*
X113606522Y-80274500D01*
X112993479Y-80274500D01*
X112993476Y-80274501D01*
X112899700Y-80289352D01*
X112899695Y-80289354D01*
X112786659Y-80346949D01*
X112696949Y-80436659D01*
X112639354Y-80549695D01*
X112624500Y-80643477D01*
X112624500Y-81106520D01*
X112624501Y-81106523D01*
X112639352Y-81200299D01*
X112639354Y-81200304D01*
X112696950Y-81313342D01*
X112786658Y-81403050D01*
X112899696Y-81460646D01*
X112993481Y-81475500D01*
X113434520Y-81475499D01*
X113492711Y-81494406D01*
X113504524Y-81504495D01*
X113768926Y-81768897D01*
X113796703Y-81823414D01*
X113787132Y-81883846D01*
X113743867Y-81927111D01*
X113683435Y-81936682D01*
X113606522Y-81924500D01*
X112993479Y-81924500D01*
X112993476Y-81924501D01*
X112899700Y-81939352D01*
X112899695Y-81939354D01*
X112786659Y-81996949D01*
X112696949Y-82086659D01*
X112639354Y-82199695D01*
X112624500Y-82293477D01*
X112624500Y-82756520D01*
X112624501Y-82756523D01*
X112639352Y-82850299D01*
X112639354Y-82850304D01*
X112696950Y-82963342D01*
X112786658Y-83053050D01*
X112870446Y-83095742D01*
X112913710Y-83139006D01*
X112924500Y-83183951D01*
X112924500Y-83420142D01*
X112905593Y-83478333D01*
X112858198Y-83513586D01*
X112762117Y-83547207D01*
X112762116Y-83547207D01*
X112652855Y-83627845D01*
X112652845Y-83627855D01*
X112572207Y-83737116D01*
X112527355Y-83865296D01*
X112527353Y-83865305D01*
X112524500Y-83895725D01*
X112524500Y-84504274D01*
X112527353Y-84534694D01*
X112527355Y-84534703D01*
X112572207Y-84662883D01*
X112652845Y-84772144D01*
X112652847Y-84772146D01*
X112652850Y-84772150D01*
X112652853Y-84772152D01*
X112652855Y-84772154D01*
X112762116Y-84852792D01*
X112762117Y-84852792D01*
X112762118Y-84852793D01*
X112890301Y-84897646D01*
X112920725Y-84900499D01*
X112920727Y-84900500D01*
X112920734Y-84900500D01*
X113529260Y-84900500D01*
X113529266Y-84900500D01*
X113529272Y-84900499D01*
X113531070Y-84900415D01*
X113531380Y-84900500D01*
X113531581Y-84900500D01*
X113531581Y-84900554D01*
X113590083Y-84916572D01*
X113628329Y-84964331D01*
X113631199Y-85025449D01*
X113605717Y-85069310D01*
X113429523Y-85245504D01*
X113375006Y-85273281D01*
X113359519Y-85274500D01*
X112993479Y-85274500D01*
X112993476Y-85274501D01*
X112899700Y-85289352D01*
X112899695Y-85289354D01*
X112786659Y-85346949D01*
X112696949Y-85436659D01*
X112639354Y-85549695D01*
X112624500Y-85643477D01*
X112624500Y-86106520D01*
X112624501Y-86106523D01*
X112639352Y-86200299D01*
X112639354Y-86200304D01*
X112696950Y-86313342D01*
X112786658Y-86403050D01*
X112899696Y-86460646D01*
X112993481Y-86475500D01*
X113606518Y-86475499D01*
X113606520Y-86475499D01*
X113606521Y-86475498D01*
X113669118Y-86465585D01*
X113700299Y-86460647D01*
X113700299Y-86460646D01*
X113700304Y-86460646D01*
X113813342Y-86403050D01*
X113903050Y-86313342D01*
X113933004Y-86254555D01*
X113976268Y-86211290D01*
X114021213Y-86200500D01*
X114100500Y-86200500D01*
X114158691Y-86219407D01*
X114194655Y-86268907D01*
X114199500Y-86299500D01*
X114199500Y-86308488D01*
X114214503Y-86403217D01*
X114215281Y-86408125D01*
X114215283Y-86408132D01*
X114273878Y-86523129D01*
X114276472Y-86528220D01*
X114371780Y-86623528D01*
X114371782Y-86623529D01*
X114491867Y-86684716D01*
X114491869Y-86684716D01*
X114491874Y-86684719D01*
X114567541Y-86696703D01*
X114591510Y-86700500D01*
X114591512Y-86700500D01*
X115108490Y-86700500D01*
X115129885Y-86697111D01*
X115208126Y-86684719D01*
X115328220Y-86623528D01*
X115423528Y-86528220D01*
X115423530Y-86528214D01*
X115428106Y-86521918D01*
X115429774Y-86523129D01*
X115465582Y-86487313D01*
X115526013Y-86477734D01*
X115580533Y-86505505D01*
X115580542Y-86505513D01*
X117359540Y-88284511D01*
X117359539Y-88284511D01*
X117394559Y-88319530D01*
X117415489Y-88340460D01*
X117450001Y-88360385D01*
X117490941Y-88405854D01*
X117499500Y-88446121D01*
X117499500Y-88708489D01*
X117502563Y-88727825D01*
X117512751Y-88792155D01*
X117515281Y-88808125D01*
X117515283Y-88808132D01*
X117562607Y-88901009D01*
X117576472Y-88928220D01*
X117671780Y-89023528D01*
X117671782Y-89023529D01*
X117791867Y-89084716D01*
X117791869Y-89084716D01*
X117791874Y-89084719D01*
X117865670Y-89096407D01*
X117891510Y-89100500D01*
X117891512Y-89100500D01*
X118408490Y-89100500D01*
X118434330Y-89096407D01*
X118508126Y-89084719D01*
X118628220Y-89023528D01*
X118723528Y-88928220D01*
X118784719Y-88808126D01*
X118800500Y-88708488D01*
X118800500Y-87891512D01*
X118784719Y-87791874D01*
X118784716Y-87791869D01*
X118784716Y-87791867D01*
X118723529Y-87671782D01*
X118723528Y-87671780D01*
X118628220Y-87576472D01*
X118628217Y-87576470D01*
X118508132Y-87515283D01*
X118508127Y-87515281D01*
X118508126Y-87515281D01*
X118474913Y-87510020D01*
X118408490Y-87499500D01*
X118408488Y-87499500D01*
X117891512Y-87499500D01*
X117891510Y-87499500D01*
X117791874Y-87515281D01*
X117791867Y-87515283D01*
X117671782Y-87576470D01*
X117671776Y-87576474D01*
X117656611Y-87591639D01*
X117602093Y-87619414D01*
X117541662Y-87609839D01*
X117516607Y-87591636D01*
X116559467Y-86634496D01*
X115584511Y-85659540D01*
X115584508Y-85659538D01*
X115568852Y-85650499D01*
X115549999Y-85639614D01*
X115509059Y-85594144D01*
X115500500Y-85553878D01*
X115500500Y-85491510D01*
X115495688Y-85461133D01*
X115484719Y-85391874D01*
X115484716Y-85391869D01*
X115484716Y-85391867D01*
X115423529Y-85271782D01*
X115423528Y-85271780D01*
X115328220Y-85176472D01*
X115328217Y-85176470D01*
X115208132Y-85115283D01*
X115208127Y-85115281D01*
X115208126Y-85115281D01*
X115171879Y-85109540D01*
X115108490Y-85099500D01*
X115108488Y-85099500D01*
X114664478Y-85099500D01*
X114606287Y-85080593D01*
X114570323Y-85031093D01*
X114570323Y-84969907D01*
X114594472Y-84930497D01*
X114840460Y-84684511D01*
X114852948Y-84662882D01*
X114880020Y-84615992D01*
X114880020Y-84615990D01*
X114880022Y-84615988D01*
X114900500Y-84539562D01*
X114900500Y-84460438D01*
X114900500Y-83590479D01*
X114919407Y-83532288D01*
X114929496Y-83520475D01*
X114957975Y-83491996D01*
X115012492Y-83464219D01*
X115027979Y-83463000D01*
X115097021Y-83463000D01*
X115155212Y-83481907D01*
X115167025Y-83491996D01*
X115370504Y-83695475D01*
X115398281Y-83749992D01*
X115399500Y-83765479D01*
X115399500Y-84139564D01*
X115419977Y-84215985D01*
X115419979Y-84215990D01*
X115445121Y-84259538D01*
X115459539Y-84284510D01*
X115826039Y-84651011D01*
X115881989Y-84706960D01*
X115950507Y-84746519D01*
X115950509Y-84746520D01*
X115950511Y-84746521D01*
X116026935Y-84766999D01*
X116026937Y-84767000D01*
X116026938Y-84767000D01*
X118773060Y-84767000D01*
X118773062Y-84767000D01*
X118849489Y-84746521D01*
X118862924Y-84738764D01*
X118912426Y-84725499D01*
X119381521Y-84725499D01*
X119381522Y-84725498D01*
X119428411Y-84718072D01*
X119475299Y-84710647D01*
X119475299Y-84710646D01*
X119475304Y-84710646D01*
X119588342Y-84653050D01*
X119678050Y-84563342D01*
X119720742Y-84479553D01*
X119764006Y-84436290D01*
X119808951Y-84425500D01*
X119925728Y-84425500D01*
X119983919Y-84444407D01*
X120013937Y-84479554D01*
X120042035Y-84534699D01*
X120051472Y-84553220D01*
X120146780Y-84648528D01*
X120146782Y-84648529D01*
X120266867Y-84709716D01*
X120266869Y-84709716D01*
X120266874Y-84709719D01*
X120342541Y-84721703D01*
X120366510Y-84725500D01*
X120366512Y-84725500D01*
X120834521Y-84725500D01*
X120892712Y-84744407D01*
X120904525Y-84754496D01*
X121396814Y-85246785D01*
X121424591Y-85301302D01*
X121415020Y-85361734D01*
X121401507Y-85380336D01*
X121401531Y-85380353D01*
X121396950Y-85386658D01*
X121339354Y-85499695D01*
X121324500Y-85593477D01*
X121324500Y-86206520D01*
X121324501Y-86206523D01*
X121339352Y-86300299D01*
X121339354Y-86300304D01*
X121396950Y-86413342D01*
X121486658Y-86503050D01*
X121599696Y-86560646D01*
X121693481Y-86575500D01*
X122156518Y-86575499D01*
X122156520Y-86575499D01*
X122156521Y-86575498D01*
X122203411Y-86568072D01*
X122250299Y-86560647D01*
X122250299Y-86560646D01*
X122250304Y-86560646D01*
X122363342Y-86503050D01*
X122453050Y-86413342D01*
X122510646Y-86300304D01*
X122525500Y-86206519D01*
X122525499Y-85765477D01*
X122544406Y-85707287D01*
X122554496Y-85695474D01*
X122634142Y-85615828D01*
X122750460Y-85499511D01*
X122750461Y-85499508D01*
X122750464Y-85499506D01*
X122772616Y-85461136D01*
X122772617Y-85461133D01*
X122790021Y-85430989D01*
X122810500Y-85354562D01*
X122810500Y-85102357D01*
X122829407Y-85044166D01*
X122876802Y-85008913D01*
X122905911Y-84998726D01*
X122972882Y-84975293D01*
X123082150Y-84894650D01*
X123162793Y-84785382D01*
X123207646Y-84657199D01*
X123210499Y-84626773D01*
X123210500Y-84626773D01*
X123210500Y-84018227D01*
X123210499Y-84018225D01*
X123207646Y-83987805D01*
X123207646Y-83987801D01*
X123162793Y-83859618D01*
X123117648Y-83798449D01*
X123082154Y-83750355D01*
X123082152Y-83750353D01*
X123082150Y-83750350D01*
X123082146Y-83750347D01*
X123082144Y-83750345D01*
X122972883Y-83669707D01*
X122844703Y-83624855D01*
X122844694Y-83624853D01*
X122814274Y-83622000D01*
X122814266Y-83622000D01*
X122205734Y-83622000D01*
X122205725Y-83622000D01*
X122175305Y-83624853D01*
X122175296Y-83624855D01*
X122047116Y-83669707D01*
X121937855Y-83750345D01*
X121937845Y-83750355D01*
X121857207Y-83859616D01*
X121812355Y-83987796D01*
X121812353Y-83987805D01*
X121809500Y-84018225D01*
X121809500Y-84570521D01*
X121790593Y-84628712D01*
X121741093Y-84664676D01*
X121679907Y-84664676D01*
X121640496Y-84640525D01*
X121354496Y-84354525D01*
X121326719Y-84300008D01*
X121325500Y-84284521D01*
X121325500Y-83816510D01*
X121317417Y-83765479D01*
X121309719Y-83716874D01*
X121309716Y-83716869D01*
X121309716Y-83716867D01*
X121248529Y-83596782D01*
X121248528Y-83596780D01*
X121153220Y-83501472D01*
X121153217Y-83501470D01*
X121033132Y-83440283D01*
X121033127Y-83440281D01*
X121033126Y-83440281D01*
X120999913Y-83435020D01*
X120933490Y-83424500D01*
X120933488Y-83424500D01*
X120639479Y-83424500D01*
X120581288Y-83405593D01*
X120545324Y-83356093D01*
X120545324Y-83294907D01*
X120569475Y-83255496D01*
X120620475Y-83204496D01*
X120674992Y-83176719D01*
X120690479Y-83175500D01*
X120933490Y-83175500D01*
X120954885Y-83172111D01*
X121033126Y-83159719D01*
X121128173Y-83111289D01*
X121173118Y-83100500D01*
X121628642Y-83100500D01*
X121628644Y-83100500D01*
X121717788Y-83076614D01*
X121797712Y-83030470D01*
X122152752Y-82675430D01*
X122276187Y-82551996D01*
X122330703Y-82524219D01*
X122346190Y-82523000D01*
X122814273Y-82523000D01*
X122814273Y-82522999D01*
X122844699Y-82520146D01*
X122972882Y-82475293D01*
X123082150Y-82394650D01*
X123118268Y-82345712D01*
X123168035Y-82310119D01*
X123197923Y-82305500D01*
X124399020Y-82305500D01*
X124399038Y-82305500D01*
X124421007Y-82304322D01*
X124447365Y-82301488D01*
X124523882Y-82277529D01*
X124585205Y-82244044D01*
X124632029Y-82208991D01*
X125211491Y-81629529D01*
X125226193Y-81613162D01*
X125242827Y-81592520D01*
X125279990Y-81521475D01*
X125299675Y-81454436D01*
X125308000Y-81396538D01*
X125308000Y-77153862D01*
X125306822Y-77131893D01*
X125303988Y-77105535D01*
X125292008Y-77067276D01*
X125280030Y-77029020D01*
X125280029Y-77029018D01*
X125246544Y-76967695D01*
X125211491Y-76920871D01*
X125081629Y-76791009D01*
X125081623Y-76791003D01*
X125065277Y-76776320D01*
X125065270Y-76776314D01*
X125065262Y-76776307D01*
X125044620Y-76759673D01*
X125044619Y-76759672D01*
X124973576Y-76722510D01*
X124973571Y-76722508D01*
X124906542Y-76702826D01*
X124906533Y-76702824D01*
X124860322Y-76696180D01*
X124848638Y-76694500D01*
X124848637Y-76694500D01*
X124254468Y-76694500D01*
X124221771Y-76688945D01*
X124193872Y-76679183D01*
X124117199Y-76652354D01*
X124117197Y-76652353D01*
X124117194Y-76652353D01*
X124086774Y-76649500D01*
X124086766Y-76649500D01*
X121978234Y-76649500D01*
X121978225Y-76649500D01*
X121947805Y-76652353D01*
X121947801Y-76652354D01*
X121843229Y-76688945D01*
X121810532Y-76694500D01*
X121384500Y-76694500D01*
X121326309Y-76675593D01*
X121290345Y-76626093D01*
X121285500Y-76595500D01*
X121285500Y-76490727D01*
X121285499Y-76490725D01*
X121285487Y-76490593D01*
X121282646Y-76460301D01*
X121237793Y-76332118D01*
X121230081Y-76321669D01*
X121157154Y-76222855D01*
X121157152Y-76222853D01*
X121157150Y-76222850D01*
X121157146Y-76222847D01*
X121157144Y-76222845D01*
X121047883Y-76142207D01*
X120919703Y-76097355D01*
X120919694Y-76097353D01*
X120889274Y-76094500D01*
X120889266Y-76094500D01*
X119554500Y-76094500D01*
X119496309Y-76075593D01*
X119460345Y-76026093D01*
X119455500Y-75995500D01*
X119455500Y-75653064D01*
X119474407Y-75594873D01*
X119523907Y-75558909D01*
X119585093Y-75558909D01*
X119624504Y-75583060D01*
X119670440Y-75628996D01*
X119686786Y-75643679D01*
X119686802Y-75643693D01*
X119707444Y-75660327D01*
X119778489Y-75697490D01*
X119778490Y-75697490D01*
X119778492Y-75697491D01*
X119778625Y-75697530D01*
X119845528Y-75717175D01*
X119903426Y-75725500D01*
X119903427Y-75725500D01*
X124153620Y-75725500D01*
X124153638Y-75725500D01*
X124175607Y-75724322D01*
X124201965Y-75721488D01*
X124278482Y-75697529D01*
X124339805Y-75664044D01*
X124386629Y-75628991D01*
X124918991Y-75096629D01*
X124933693Y-75080262D01*
X124950327Y-75059620D01*
X124987490Y-74988575D01*
X125007175Y-74921536D01*
X125015500Y-74863638D01*
X125015500Y-72161362D01*
X125014322Y-72139393D01*
X125011488Y-72113035D01*
X124987529Y-72036518D01*
X124954044Y-71975195D01*
X124918991Y-71928371D01*
X124311629Y-71321009D01*
X124311623Y-71321003D01*
X124295277Y-71306320D01*
X124295270Y-71306314D01*
X124295262Y-71306307D01*
X124274620Y-71289673D01*
X124274619Y-71289672D01*
X124203576Y-71252510D01*
X124203571Y-71252508D01*
X124136542Y-71232826D01*
X124136533Y-71232824D01*
X124090322Y-71226180D01*
X124078638Y-71224500D01*
X121011362Y-71224500D01*
X121011343Y-71224500D01*
X120989405Y-71225677D01*
X120989398Y-71225677D01*
X120989393Y-71225678D01*
X120980894Y-71226591D01*
X120963038Y-71228511D01*
X120963033Y-71228512D01*
X120886520Y-71252469D01*
X120825193Y-71285957D01*
X120778369Y-71321010D01*
X119141003Y-72958376D01*
X119126320Y-72974722D01*
X119126301Y-72974745D01*
X119109672Y-72995380D01*
X119070256Y-73070734D01*
X119068798Y-73069971D01*
X119033856Y-73111605D01*
X118974487Y-73126401D01*
X118917759Y-73103475D01*
X118915281Y-73101324D01*
X118915262Y-73101307D01*
X118894620Y-73084673D01*
X118894619Y-73084672D01*
X118823576Y-73047510D01*
X118823571Y-73047508D01*
X118756542Y-73027826D01*
X118756533Y-73027824D01*
X118710322Y-73021180D01*
X118698638Y-73019500D01*
X118698637Y-73019500D01*
X115480442Y-73019500D01*
X115422251Y-73000593D01*
X115420454Y-72999256D01*
X115080937Y-72740647D01*
X115030791Y-72702451D01*
X115024171Y-72697614D01*
X115016085Y-72691950D01*
X115016081Y-72691947D01*
X114956088Y-72663092D01*
X114956083Y-72663090D01*
X114889050Y-72643406D01*
X114889041Y-72643404D01*
X114842830Y-72636760D01*
X114831146Y-72635080D01*
X113432466Y-72635080D01*
X113422015Y-72635345D01*
X113409406Y-72635988D01*
X113342245Y-72650946D01*
X113277546Y-72677342D01*
X113277539Y-72677345D01*
X113227096Y-72706911D01*
X113227080Y-72706922D01*
X113018628Y-72873080D01*
X113018612Y-72873094D01*
X112994184Y-72896063D01*
X112994181Y-72896067D01*
X112967459Y-72925659D01*
X112967167Y-72925979D01*
X112967154Y-72925998D01*
X112922511Y-73005808D01*
X112922509Y-73005811D01*
X112902826Y-73072844D01*
X112902824Y-73072853D01*
X112894500Y-73130749D01*
X112894500Y-74633656D01*
X112894633Y-74641097D01*
X112894957Y-74650033D01*
X112894958Y-74650045D01*
X112905048Y-74700594D01*
X112907845Y-74714603D01*
X112932321Y-74780046D01*
X112932322Y-74780048D01*
X112932323Y-74780050D01*
X112960400Y-74831358D01*
X112995653Y-74878363D01*
X113005392Y-74894281D01*
X113035799Y-74956478D01*
X113035800Y-74956480D01*
X113035801Y-74956481D01*
X113035802Y-74956483D01*
X113084317Y-75004998D01*
X113112093Y-75059513D01*
X113102522Y-75119945D01*
X113084318Y-75145000D01*
X113055010Y-75174309D01*
X113035801Y-75193518D01*
X112984427Y-75298604D01*
X112981506Y-75318655D01*
X112974500Y-75366740D01*
X112974500Y-75733260D01*
X112977863Y-75756342D01*
X112984427Y-75801395D01*
X113013773Y-75861422D01*
X113035802Y-75906483D01*
X113118517Y-75989198D01*
X113172285Y-76015483D01*
X113223604Y-76040572D01*
X113223605Y-76040572D01*
X113223607Y-76040573D01*
X113291740Y-76050500D01*
X113605500Y-76050500D01*
X113663691Y-76069407D01*
X113699655Y-76118907D01*
X113704500Y-76149500D01*
X113704500Y-76520023D01*
X113685593Y-76578214D01*
X113675504Y-76590026D01*
X113620935Y-76644595D01*
X113620933Y-76644598D01*
X113570932Y-76751824D01*
X113570932Y-76751825D01*
X113567624Y-76776956D01*
X113565775Y-76791003D01*
X113564500Y-76800685D01*
X113564500Y-77249314D01*
X113570932Y-77298174D01*
X113570932Y-77298175D01*
X113620933Y-77405401D01*
X113620935Y-77405404D01*
X113670527Y-77454997D01*
X113698304Y-77509514D01*
X113688732Y-77569946D01*
X113670527Y-77595003D01*
X113620934Y-77644596D01*
X113614724Y-77657915D01*
X113572995Y-77702663D01*
X113512934Y-77714337D01*
X113457482Y-77688478D01*
X113435276Y-77657915D01*
X113429066Y-77644598D01*
X113429065Y-77644597D01*
X113429065Y-77644596D01*
X113345404Y-77560935D01*
X113345402Y-77560934D01*
X113345401Y-77560933D01*
X113238175Y-77510932D01*
X113205601Y-77506644D01*
X113189316Y-77504500D01*
X112840684Y-77504500D01*
X112791827Y-77510932D01*
X112791826Y-77510932D01*
X112791823Y-77510933D01*
X112786191Y-77513560D01*
X112725461Y-77521015D01*
X112671948Y-77491350D01*
X112654301Y-77464960D01*
X112625378Y-77401628D01*
X112625377Y-77401626D01*
X112546480Y-77310574D01*
X112522662Y-77254215D01*
X112529190Y-77217442D01*
X112526852Y-77216761D01*
X112528971Y-77209489D01*
X112528970Y-77209489D01*
X112528972Y-77209487D01*
X112535500Y-77159901D01*
X112535499Y-76740100D01*
X112534999Y-76736305D01*
X112528972Y-76690513D01*
X112528972Y-76690511D01*
X112478225Y-76581686D01*
X112478223Y-76581683D01*
X112434496Y-76537955D01*
X112406719Y-76483438D01*
X112405500Y-76467952D01*
X112405500Y-76118340D01*
X112405501Y-76118327D01*
X112405501Y-76024650D01*
X112405501Y-76024648D01*
X112383318Y-75941862D01*
X112383317Y-75941860D01*
X112381638Y-75935594D01*
X112383107Y-75935200D01*
X112378899Y-75881803D01*
X112386223Y-75861428D01*
X112415573Y-75801393D01*
X112425500Y-75733260D01*
X112425500Y-75366740D01*
X112418702Y-75320085D01*
X112429022Y-75259779D01*
X112458480Y-75225719D01*
X112481953Y-75208667D01*
X112516311Y-75174310D01*
X112527267Y-75162458D01*
X112537357Y-75150644D01*
X112576536Y-75080685D01*
X112595443Y-75022494D01*
X112600815Y-74988575D01*
X112605500Y-74958995D01*
X112605500Y-74341021D01*
X112605500Y-74341008D01*
X112604866Y-74324883D01*
X112603647Y-74309396D01*
X112581884Y-74232228D01*
X112554107Y-74177711D01*
X112516314Y-74125694D01*
X112412856Y-74022235D01*
X112412844Y-74022223D01*
X112389344Y-74002026D01*
X112365441Y-73984432D01*
X112362680Y-73982434D01*
X112309688Y-73960411D01*
X112278226Y-73947336D01*
X112278224Y-73947335D01*
X112278223Y-73947335D01*
X112235342Y-73939997D01*
X112217917Y-73937016D01*
X112217915Y-73937015D01*
X112217910Y-73937015D01*
X112153659Y-73936215D01*
X112153639Y-73936216D01*
X112144687Y-73937520D01*
X112144573Y-73937539D01*
X112100464Y-73943966D01*
X112086190Y-73945000D01*
X111039360Y-73945000D01*
X110995880Y-73934941D01*
X110973915Y-73924203D01*
X110974085Y-73923854D01*
X110944795Y-73904175D01*
X110324306Y-73283686D01*
X110324292Y-73283673D01*
X110324286Y-73283667D01*
X110312465Y-73272739D01*
X110312456Y-73272731D01*
X110300643Y-73262642D01*
X110230685Y-73223464D01*
X110172494Y-73204557D01*
X110172491Y-73204556D01*
X110172487Y-73204555D01*
X110160103Y-73202593D01*
X110105587Y-73174813D01*
X110077812Y-73120296D01*
X110076594Y-73104813D01*
X110076594Y-71119891D01*
X110076593Y-71119889D01*
X110073740Y-71089469D01*
X110073740Y-71089465D01*
X110028887Y-70961282D01*
X109993167Y-70912883D01*
X109948248Y-70852019D01*
X109948246Y-70852017D01*
X109948244Y-70852014D01*
X109948240Y-70852011D01*
X109948238Y-70852009D01*
X109838977Y-70771371D01*
X109710797Y-70726519D01*
X109710788Y-70726517D01*
X109680368Y-70723664D01*
X109680360Y-70723664D01*
X109299000Y-70723664D01*
X109240809Y-70704757D01*
X109204845Y-70655257D01*
X109200000Y-70624664D01*
X109200000Y-70464165D01*
X109200000Y-70464164D01*
X104342220Y-70464164D01*
X104342220Y-70464165D01*
X104342220Y-70624664D01*
X104323313Y-70682855D01*
X104273813Y-70718819D01*
X104243220Y-70723664D01*
X103871819Y-70723664D01*
X103841399Y-70726517D01*
X103841390Y-70726519D01*
X103713210Y-70771371D01*
X103603949Y-70852009D01*
X103603939Y-70852019D01*
X103523301Y-70961280D01*
X103478449Y-71089460D01*
X103478447Y-71089469D01*
X103475594Y-71119889D01*
X103475594Y-72845500D01*
X103456687Y-72903691D01*
X103407187Y-72939655D01*
X103376594Y-72944500D01*
X82416343Y-72944500D01*
X82394405Y-72945677D01*
X82394398Y-72945677D01*
X82394393Y-72945678D01*
X82385894Y-72946591D01*
X82368038Y-72948511D01*
X82368033Y-72948512D01*
X82291520Y-72972469D01*
X82230193Y-73005957D01*
X82183369Y-73041010D01*
X82004726Y-73219654D01*
X81950209Y-73247431D01*
X81889777Y-73237860D01*
X81846512Y-73194595D01*
X81835722Y-73149650D01*
X81835722Y-69141510D01*
X110749500Y-69141510D01*
X110749500Y-69958489D01*
X110765281Y-70058125D01*
X110765283Y-70058132D01*
X110826470Y-70178217D01*
X110826472Y-70178220D01*
X110921780Y-70273528D01*
X110921782Y-70273529D01*
X111041867Y-70334716D01*
X111041869Y-70334716D01*
X111041874Y-70334719D01*
X111117541Y-70346703D01*
X111141510Y-70350500D01*
X111141512Y-70350500D01*
X111658490Y-70350500D01*
X111679885Y-70347111D01*
X111758126Y-70334719D01*
X111878220Y-70273528D01*
X111973528Y-70178220D01*
X111999769Y-70126718D01*
X112043031Y-70083456D01*
X112103463Y-70073884D01*
X112157980Y-70101661D01*
X112171261Y-70118142D01*
X112174620Y-70123368D01*
X112174621Y-70123369D01*
X112174623Y-70123373D01*
X112268872Y-70232143D01*
X112268873Y-70232144D01*
X112333268Y-70273528D01*
X112389947Y-70309953D01*
X112496403Y-70341211D01*
X112528035Y-70350499D01*
X112528036Y-70350499D01*
X112528039Y-70350500D01*
X112528041Y-70350500D01*
X112671959Y-70350500D01*
X112671961Y-70350500D01*
X112810053Y-70309953D01*
X112931128Y-70232143D01*
X113025377Y-70123373D01*
X113085165Y-69992457D01*
X113105647Y-69850000D01*
X113093143Y-69763035D01*
X113085165Y-69707543D01*
X113066386Y-69666423D01*
X113025377Y-69576627D01*
X112931128Y-69467857D01*
X112931127Y-69467856D01*
X112931126Y-69467855D01*
X112810057Y-69390049D01*
X112810054Y-69390047D01*
X112810053Y-69390047D01*
X112810050Y-69390046D01*
X112671964Y-69349500D01*
X112671961Y-69349500D01*
X112565478Y-69349500D01*
X112507287Y-69330593D01*
X112495480Y-69320509D01*
X112484511Y-69309540D01*
X112484508Y-69309538D01*
X112426950Y-69276307D01*
X112426947Y-69276306D01*
X112426938Y-69276301D01*
X112415989Y-69269979D01*
X112339562Y-69249500D01*
X112339560Y-69249500D01*
X112149500Y-69249500D01*
X112091309Y-69230593D01*
X112055345Y-69181093D01*
X112050500Y-69150500D01*
X112050500Y-69141510D01*
X112046703Y-69117541D01*
X112034719Y-69041874D01*
X112034716Y-69041869D01*
X112034716Y-69041867D01*
X111973529Y-68921782D01*
X111973528Y-68921780D01*
X111878220Y-68826472D01*
X111878217Y-68826470D01*
X111758132Y-68765283D01*
X111758127Y-68765281D01*
X111758126Y-68765281D01*
X111724913Y-68760020D01*
X111658490Y-68749500D01*
X111658488Y-68749500D01*
X111141512Y-68749500D01*
X111141510Y-68749500D01*
X111041874Y-68765281D01*
X111041867Y-68765283D01*
X110921782Y-68826470D01*
X110826470Y-68921782D01*
X110765283Y-69041867D01*
X110765281Y-69041874D01*
X110749500Y-69141510D01*
X81835722Y-69141510D01*
X81835722Y-68510300D01*
X81854629Y-68452109D01*
X81904129Y-68416145D01*
X81934431Y-68411301D01*
X84471748Y-68404126D01*
X84477535Y-68404281D01*
X84500000Y-68405543D01*
X84525449Y-68404113D01*
X84530645Y-68403960D01*
X115948005Y-68315118D01*
X116006249Y-68333861D01*
X116042353Y-68383259D01*
X116042526Y-68444444D01*
X116006702Y-68494046D01*
X115993231Y-68502327D01*
X115896781Y-68551471D01*
X115801471Y-68646781D01*
X115763937Y-68720446D01*
X115720672Y-68763710D01*
X115675728Y-68774500D01*
X115099988Y-68774500D01*
X115065979Y-68766336D01*
X115065540Y-68767690D01*
X115058127Y-68765281D01*
X115058126Y-68765281D01*
X115024913Y-68760020D01*
X114958490Y-68749500D01*
X114958488Y-68749500D01*
X114441512Y-68749500D01*
X114441510Y-68749500D01*
X114341874Y-68765281D01*
X114341867Y-68765283D01*
X114221782Y-68826470D01*
X114126470Y-68921782D01*
X114065283Y-69041867D01*
X114065281Y-69041874D01*
X114049500Y-69141510D01*
X114049500Y-69958489D01*
X114065281Y-70058125D01*
X114065283Y-70058132D01*
X114126470Y-70178217D01*
X114126472Y-70178220D01*
X114221780Y-70273528D01*
X114221782Y-70273529D01*
X114341867Y-70334716D01*
X114341869Y-70334716D01*
X114341874Y-70334719D01*
X114417541Y-70346703D01*
X114441510Y-70350500D01*
X114441512Y-70350500D01*
X114958490Y-70350500D01*
X114979885Y-70347111D01*
X115058126Y-70334719D01*
X115178220Y-70273528D01*
X115273528Y-70178220D01*
X115334719Y-70058126D01*
X115350500Y-69958488D01*
X115350500Y-69574500D01*
X115369407Y-69516309D01*
X115418907Y-69480345D01*
X115449500Y-69475500D01*
X115675728Y-69475500D01*
X115733919Y-69494407D01*
X115763937Y-69529554D01*
X115786960Y-69574738D01*
X115801472Y-69603220D01*
X115896780Y-69698528D01*
X115896782Y-69698529D01*
X116016867Y-69759716D01*
X116016869Y-69759716D01*
X116016874Y-69759719D01*
X116092541Y-69771703D01*
X116116510Y-69775500D01*
X116116512Y-69775500D01*
X116683491Y-69775500D01*
X116775065Y-69760995D01*
X116783126Y-69759719D01*
X116783126Y-69759718D01*
X116790822Y-69758500D01*
X116791133Y-69760466D01*
X116842002Y-69760457D01*
X116881431Y-69784613D01*
X117313004Y-70216186D01*
X117340781Y-70270703D01*
X117342000Y-70286190D01*
X117342000Y-70754274D01*
X117344853Y-70784694D01*
X117344855Y-70784703D01*
X117389706Y-70912881D01*
X117398183Y-70924367D01*
X117430155Y-70967688D01*
X117449497Y-71025734D01*
X117449500Y-71026475D01*
X117449500Y-71483310D01*
X117430593Y-71541501D01*
X117395446Y-71571519D01*
X117286659Y-71626949D01*
X117196949Y-71716659D01*
X117139354Y-71829695D01*
X117124500Y-71923477D01*
X117124500Y-72386520D01*
X117124501Y-72386523D01*
X117139352Y-72480299D01*
X117139354Y-72480304D01*
X117196950Y-72593342D01*
X117286658Y-72683050D01*
X117399696Y-72740646D01*
X117493481Y-72755500D01*
X118106518Y-72755499D01*
X118106520Y-72755499D01*
X118106521Y-72755498D01*
X118153411Y-72748072D01*
X118200299Y-72740647D01*
X118200299Y-72740646D01*
X118200304Y-72740646D01*
X118313342Y-72683050D01*
X118403050Y-72593342D01*
X118460646Y-72480304D01*
X118475500Y-72386519D01*
X118475499Y-71923482D01*
X118460646Y-71829696D01*
X118403050Y-71716658D01*
X118313342Y-71626950D01*
X118309291Y-71624886D01*
X118204554Y-71571519D01*
X118161290Y-71528254D01*
X118150500Y-71483310D01*
X118150500Y-71249500D01*
X118169407Y-71191309D01*
X118218907Y-71155345D01*
X118249500Y-71150500D01*
X118346773Y-71150500D01*
X118346773Y-71150499D01*
X118377199Y-71147646D01*
X118505382Y-71102793D01*
X118614650Y-71022150D01*
X118695293Y-70912882D01*
X118740146Y-70784699D01*
X118742999Y-70754273D01*
X118743000Y-70754273D01*
X118743000Y-70145727D01*
X118742999Y-70145725D01*
X118740903Y-70123373D01*
X118740146Y-70115301D01*
X118695293Y-69987118D01*
X118674163Y-69958488D01*
X118614654Y-69877855D01*
X118614652Y-69877853D01*
X118614650Y-69877850D01*
X118614646Y-69877847D01*
X118614644Y-69877845D01*
X118505383Y-69797207D01*
X118377203Y-69752355D01*
X118377194Y-69752353D01*
X118346774Y-69749500D01*
X118346766Y-69749500D01*
X117878690Y-69749500D01*
X117820499Y-69730593D01*
X117808686Y-69720504D01*
X117104496Y-69016314D01*
X117076719Y-68961797D01*
X117075500Y-68946310D01*
X117075500Y-68866510D01*
X117069158Y-68826470D01*
X117059719Y-68766874D01*
X117059716Y-68766869D01*
X117059716Y-68766867D01*
X116998529Y-68646782D01*
X116998528Y-68646780D01*
X116903220Y-68551472D01*
X116903217Y-68551470D01*
X116801782Y-68499786D01*
X116758517Y-68456522D01*
X116748946Y-68396090D01*
X116776724Y-68341573D01*
X116831240Y-68313796D01*
X116846438Y-68312577D01*
X130593792Y-68273703D01*
X130621464Y-68277569D01*
X130786700Y-68325173D01*
X131141093Y-68385387D01*
X131141096Y-68385387D01*
X131141102Y-68385388D01*
X131499995Y-68405543D01*
X131500000Y-68405543D01*
X131500005Y-68405543D01*
X131858897Y-68385388D01*
X131858901Y-68385387D01*
X131858907Y-68385387D01*
X132213300Y-68325173D01*
X132396500Y-68272394D01*
X132423604Y-68268528D01*
X133970872Y-68264153D01*
X134029116Y-68282896D01*
G37*
G04 #@! TD.AperFunction*
G04 #@! TD*
G04 #@! TA.AperFunction,Conductor*
G04 #@! TO.N,VBUS*
G36*
X83585340Y-84305985D02*
G01*
X83586930Y-84306793D01*
X84857908Y-85080511D01*
X84890877Y-85100581D01*
X84896162Y-85107810D01*
X84896493Y-85110575D01*
X84896493Y-85594423D01*
X84893066Y-85602696D01*
X84887105Y-85605892D01*
X83584708Y-85868397D01*
X83575921Y-85866673D01*
X83571591Y-85861417D01*
X83464096Y-85602696D01*
X83250864Y-85089488D01*
X83250856Y-85080534D01*
X83250865Y-85080511D01*
X83570046Y-84312301D01*
X83576385Y-84305976D01*
X83585340Y-84305985D01*
G37*
G04 #@! TD.AperFunction*
G04 #@! TD*
M02*
