G04 #@! TF.GenerationSoftware,KiCad,Pcbnew,8.0.8*
G04 #@! TF.CreationDate,2025-07-16T13:43:26+07:00*
G04 #@! TF.ProjectId,USBC_Prog_A7677S_V1.1,55534243-5f50-4726-9f67-5f4137363737,rev?*
G04 #@! TF.SameCoordinates,Original*
G04 #@! TF.FileFunction,Soldermask,Top*
G04 #@! TF.FilePolarity,Negative*
%FSLAX46Y46*%
G04 Gerber Fmt 4.6, Leading zero omitted, Abs format (unit mm)*
G04 Created by KiCad (PCBNEW 8.0.8) date 2025-07-16 13:43:26*
%MOMM*%
%LPD*%
G01*
G04 APERTURE LIST*
G04 Aperture macros list*
%AMRoundRect*
0 Rectangle with rounded corners*
0 $1 Rounding radius*
0 $2 $3 $4 $5 $6 $7 $8 $9 X,Y pos of 4 corners*
0 Add a 4 corners polygon primitive as box body*
4,1,4,$2,$3,$4,$5,$6,$7,$8,$9,$2,$3,0*
0 Add four circle primitives for the rounded corners*
1,1,$1+$1,$2,$3*
1,1,$1+$1,$4,$5*
1,1,$1+$1,$6,$7*
1,1,$1+$1,$8,$9*
0 Add four rect primitives between the rounded corners*
20,1,$1+$1,$2,$3,$4,$5,0*
20,1,$1+$1,$4,$5,$6,$7,0*
20,1,$1+$1,$6,$7,$8,$9,0*
20,1,$1+$1,$8,$9,$2,$3,0*%
G04 Aperture macros list end*
%ADD10C,0.010000*%
%ADD11C,6.000000*%
%ADD12RoundRect,0.200000X0.275000X-0.200000X0.275000X0.200000X-0.275000X0.200000X-0.275000X-0.200000X0*%
%ADD13RoundRect,0.225000X0.250000X-0.225000X0.250000X0.225000X-0.250000X0.225000X-0.250000X-0.225000X0*%
%ADD14RoundRect,0.250000X0.475000X-0.250000X0.475000X0.250000X-0.475000X0.250000X-0.475000X-0.250000X0*%
%ADD15RoundRect,0.140000X0.140000X0.170000X-0.140000X0.170000X-0.140000X-0.170000X0.140000X-0.170000X0*%
%ADD16RoundRect,0.250000X0.250000X-0.250000X0.250000X0.250000X-0.250000X0.250000X-0.250000X-0.250000X0*%
%ADD17RoundRect,0.250000X-0.625000X0.375000X-0.625000X-0.375000X0.625000X-0.375000X0.625000X0.375000X0*%
%ADD18RoundRect,0.135000X0.135000X0.185000X-0.135000X0.185000X-0.135000X-0.185000X0.135000X-0.185000X0*%
%ADD19RoundRect,0.150000X0.587500X0.150000X-0.587500X0.150000X-0.587500X-0.150000X0.587500X-0.150000X0*%
%ADD20RoundRect,0.135000X-0.135000X-0.185000X0.135000X-0.185000X0.135000X0.185000X-0.135000X0.185000X0*%
%ADD21RoundRect,0.250000X-0.600000X-2.600000X0.600000X-2.600000X0.600000X2.600000X-0.600000X2.600000X0*%
%ADD22R,1.700000X1.700000*%
%ADD23O,1.700000X1.700000*%
%ADD24RoundRect,0.225000X-0.250000X0.225000X-0.250000X-0.225000X0.250000X-0.225000X0.250000X0.225000X0*%
%ADD25RoundRect,0.140000X-0.140000X-0.170000X0.140000X-0.170000X0.140000X0.170000X-0.140000X0.170000X0*%
%ADD26C,4.000000*%
%ADD27RoundRect,0.150000X-0.587500X-0.150000X0.587500X-0.150000X0.587500X0.150000X-0.587500X0.150000X0*%
%ADD28RoundRect,0.150000X0.512500X0.150000X-0.512500X0.150000X-0.512500X-0.150000X0.512500X-0.150000X0*%
%ADD29RoundRect,0.225000X-0.225000X-0.375000X0.225000X-0.375000X0.225000X0.375000X-0.225000X0.375000X0*%
%ADD30RoundRect,0.250000X-1.000000X-0.900000X1.000000X-0.900000X1.000000X0.900000X-1.000000X0.900000X0*%
%ADD31RoundRect,0.200000X-0.275000X0.200000X-0.275000X-0.200000X0.275000X-0.200000X0.275000X0.200000X0*%
%ADD32RoundRect,0.250000X-1.025000X0.875000X-1.025000X-0.875000X1.025000X-0.875000X1.025000X0.875000X0*%
%ADD33O,2.004000X1.204000*%
%ADD34O,2.304000X1.204000*%
%ADD35C,0.650000*%
%ADD36RoundRect,0.250000X-0.250000X0.250000X-0.250000X-0.250000X0.250000X-0.250000X0.250000X0.250000X0*%
%ADD37RoundRect,0.250000X0.250000X0.475000X-0.250000X0.475000X-0.250000X-0.475000X0.250000X-0.475000X0*%
%ADD38RoundRect,0.200000X-0.200000X-0.275000X0.200000X-0.275000X0.200000X0.275000X-0.200000X0.275000X0*%
%ADD39RoundRect,0.250000X-0.250000X-0.250000X0.250000X-0.250000X0.250000X0.250000X-0.250000X0.250000X0*%
%ADD40RoundRect,0.250000X0.375000X0.625000X-0.375000X0.625000X-0.375000X-0.625000X0.375000X-0.625000X0*%
%ADD41RoundRect,0.250000X0.250000X0.250000X-0.250000X0.250000X-0.250000X-0.250000X0.250000X-0.250000X0*%
G04 APERTURE END LIST*
D10*
G04 #@! TO.C,J1*
X126770000Y-91900000D02*
X125520000Y-91900000D01*
X125520000Y-91200000D01*
X126770000Y-91200000D01*
X126770000Y-91900000D01*
G36*
X126770000Y-91900000D02*
G01*
X125520000Y-91900000D01*
X125520000Y-91200000D01*
X126770000Y-91200000D01*
X126770000Y-91900000D01*
G37*
X126770000Y-91100000D02*
X125520000Y-91100000D01*
X125520000Y-90400000D01*
X126770000Y-90400000D01*
X126770000Y-91100000D01*
G36*
X126770000Y-91100000D02*
G01*
X125520000Y-91100000D01*
X125520000Y-90400000D01*
X126770000Y-90400000D01*
X126770000Y-91100000D01*
G37*
X126770000Y-90300000D02*
X125520000Y-90300000D01*
X125520000Y-89900000D01*
X126770000Y-89900000D01*
X126770000Y-90300000D01*
G36*
X126770000Y-90300000D02*
G01*
X125520000Y-90300000D01*
X125520000Y-89900000D01*
X126770000Y-89900000D01*
X126770000Y-90300000D01*
G37*
X126770000Y-89800000D02*
X125520000Y-89800000D01*
X125520000Y-89400000D01*
X126770000Y-89400000D01*
X126770000Y-89800000D01*
G36*
X126770000Y-89800000D02*
G01*
X125520000Y-89800000D01*
X125520000Y-89400000D01*
X126770000Y-89400000D01*
X126770000Y-89800000D01*
G37*
X126770000Y-89300000D02*
X125520000Y-89300000D01*
X125520000Y-88900000D01*
X126770000Y-88900000D01*
X126770000Y-89300000D01*
G36*
X126770000Y-89300000D02*
G01*
X125520000Y-89300000D01*
X125520000Y-88900000D01*
X126770000Y-88900000D01*
X126770000Y-89300000D01*
G37*
X126770000Y-88800000D02*
X125520000Y-88800000D01*
X125520000Y-88400000D01*
X126770000Y-88400000D01*
X126770000Y-88800000D01*
G36*
X126770000Y-88800000D02*
G01*
X125520000Y-88800000D01*
X125520000Y-88400000D01*
X126770000Y-88400000D01*
X126770000Y-88800000D01*
G37*
X126770000Y-88300000D02*
X125520000Y-88300000D01*
X125520000Y-87900000D01*
X126770000Y-87900000D01*
X126770000Y-88300000D01*
G36*
X126770000Y-88300000D02*
G01*
X125520000Y-88300000D01*
X125520000Y-87900000D01*
X126770000Y-87900000D01*
X126770000Y-88300000D01*
G37*
X126770000Y-87800000D02*
X125520000Y-87800000D01*
X125520000Y-87400000D01*
X126770000Y-87400000D01*
X126770000Y-87800000D01*
G36*
X126770000Y-87800000D02*
G01*
X125520000Y-87800000D01*
X125520000Y-87400000D01*
X126770000Y-87400000D01*
X126770000Y-87800000D01*
G37*
X126770000Y-87300000D02*
X125520000Y-87300000D01*
X125520000Y-86900000D01*
X126770000Y-86900000D01*
X126770000Y-87300000D01*
G36*
X126770000Y-87300000D02*
G01*
X125520000Y-87300000D01*
X125520000Y-86900000D01*
X126770000Y-86900000D01*
X126770000Y-87300000D01*
G37*
X126770000Y-86800000D02*
X125520000Y-86800000D01*
X125520000Y-86400000D01*
X126770000Y-86400000D01*
X126770000Y-86800000D01*
G36*
X126770000Y-86800000D02*
G01*
X125520000Y-86800000D01*
X125520000Y-86400000D01*
X126770000Y-86400000D01*
X126770000Y-86800000D01*
G37*
X126770000Y-86300000D02*
X125520000Y-86300000D01*
X125520000Y-85600000D01*
X126770000Y-85600000D01*
X126770000Y-86300000D01*
G36*
X126770000Y-86300000D02*
G01*
X125520000Y-86300000D01*
X125520000Y-85600000D01*
X126770000Y-85600000D01*
X126770000Y-86300000D01*
G37*
X126770000Y-85500000D02*
X125520000Y-85500000D01*
X125520000Y-84800000D01*
X126770000Y-84800000D01*
X126770000Y-85500000D01*
G36*
X126770000Y-85500000D02*
G01*
X125520000Y-85500000D01*
X125520000Y-84800000D01*
X126770000Y-84800000D01*
X126770000Y-85500000D01*
G37*
G04 #@! TD*
D11*
G04 #@! TO.C,TP6*
X131500000Y-97400000D03*
G04 #@! TD*
G04 #@! TO.C,TP5*
X131500000Y-65200000D03*
G04 #@! TD*
G04 #@! TO.C,TP4*
X84500000Y-97400000D03*
G04 #@! TD*
G04 #@! TO.C,TP3*
X84500000Y-65200000D03*
G04 #@! TD*
D12*
G04 #@! TO.C,R40*
X119075000Y-84125000D03*
X119075000Y-82475000D03*
G04 #@! TD*
G04 #@! TO.C,R4*
X106250000Y-87575000D03*
X106250000Y-85925000D03*
G04 #@! TD*
D13*
G04 #@! TO.C,C41*
X121200000Y-91075000D03*
X121200000Y-89525000D03*
G04 #@! TD*
D14*
G04 #@! TO.C,C40*
X100050000Y-74100000D03*
X100050000Y-72200000D03*
G04 #@! TD*
D15*
G04 #@! TO.C,C37*
X112055000Y-76950000D03*
X111095000Y-76950000D03*
G04 #@! TD*
G04 #@! TO.C,C36*
X116380000Y-75500000D03*
X115420000Y-75500000D03*
G04 #@! TD*
D16*
G04 #@! TO.C,D4*
X108400000Y-91550000D03*
X108400000Y-89050000D03*
G04 #@! TD*
D13*
G04 #@! TO.C,C1*
X119640000Y-91090000D03*
X119640000Y-89540000D03*
G04 #@! TD*
D17*
G04 #@! TO.C,F2*
X120210000Y-74120000D03*
X120210000Y-76920000D03*
G04 #@! TD*
D14*
G04 #@! TO.C,C34*
X115800000Y-74100000D03*
X115800000Y-72200000D03*
G04 #@! TD*
D18*
G04 #@! TO.C,R26*
X114035000Y-77025000D03*
X113015000Y-77025000D03*
G04 #@! TD*
D19*
G04 #@! TO.C,Q2*
X102737500Y-91375000D03*
X102737500Y-89475000D03*
X100862500Y-90425000D03*
G04 #@! TD*
D14*
G04 #@! TO.C,C39*
X102100000Y-74100000D03*
X102100000Y-72200000D03*
G04 #@! TD*
D20*
G04 #@! TO.C,R29*
X113015000Y-78025000D03*
X114035000Y-78025000D03*
G04 #@! TD*
D21*
G04 #@! TO.C,L1*
X104526094Y-73774164D03*
X109026094Y-73774164D03*
G04 #@! TD*
D22*
G04 #@! TO.C,J3*
X83250000Y-74925000D03*
D23*
X83250000Y-77465000D03*
X83250000Y-80005000D03*
X83250000Y-82545000D03*
X83250000Y-85085000D03*
G04 #@! TD*
D24*
G04 #@! TO.C,C29*
X120650000Y-82525000D03*
X120650000Y-84075000D03*
G04 #@! TD*
D25*
G04 #@! TO.C,C38*
X113045000Y-79025000D03*
X114005000Y-79025000D03*
G04 #@! TD*
D26*
G04 #@! TO.C,TP1*
X131400000Y-79330000D03*
G04 #@! TD*
D27*
G04 #@! TO.C,Q1*
X110412500Y-89650000D03*
X110412500Y-91550000D03*
X112287500Y-90600000D03*
G04 #@! TD*
D28*
G04 #@! TO.C,U3*
X113837500Y-75550000D03*
X113837500Y-74600000D03*
X113837500Y-73650000D03*
X111562500Y-73650000D03*
X111562500Y-74600000D03*
X111562500Y-75550000D03*
G04 #@! TD*
D29*
G04 #@! TO.C,D5*
X114850000Y-85900000D03*
X118150000Y-85900000D03*
G04 #@! TD*
D30*
G04 #@! TO.C,D8*
X123032500Y-78000000D03*
X127332500Y-78000000D03*
G04 #@! TD*
D31*
G04 #@! TO.C,R30*
X113300000Y-80875000D03*
X113300000Y-82525000D03*
G04 #@! TD*
D32*
G04 #@! TO.C,C4*
X94800000Y-74575000D03*
X94800000Y-80975000D03*
G04 #@! TD*
D19*
G04 #@! TO.C,Q12*
X120137500Y-80850000D03*
X120137500Y-78950000D03*
X118262500Y-79900000D03*
G04 #@! TD*
D33*
G04 #@! TO.C,J1*
X130900000Y-84030000D03*
X130900000Y-92670000D03*
D34*
X126720000Y-84030000D03*
X126720000Y-92670000D03*
D35*
X127220000Y-85460000D03*
X127220000Y-91240000D03*
G04 #@! TD*
D12*
G04 #@! TO.C,R43*
X113300000Y-87525000D03*
X113300000Y-85875000D03*
G04 #@! TD*
D30*
G04 #@! TO.C,D6*
X123050000Y-73130000D03*
X127350000Y-73130000D03*
G04 #@! TD*
D36*
G04 #@! TO.C,D14*
X122510000Y-81822500D03*
X122510000Y-84322500D03*
G04 #@! TD*
D37*
G04 #@! TO.C,C15*
X117650000Y-77100000D03*
X115750000Y-77100000D03*
G04 #@! TD*
D16*
G04 #@! TO.C,D3*
X106400000Y-91550000D03*
X106400000Y-89050000D03*
G04 #@! TD*
D13*
G04 #@! TO.C,C3*
X104650000Y-91025000D03*
X104650000Y-89475000D03*
G04 #@! TD*
D38*
G04 #@! TO.C,R3*
X102975000Y-87600000D03*
X104625000Y-87600000D03*
G04 #@! TD*
D31*
G04 #@! TO.C,R2*
X117800000Y-72155000D03*
X117800000Y-73805000D03*
G04 #@! TD*
D39*
G04 #@! TO.C,D1*
X118042500Y-70450000D03*
X120542500Y-70450000D03*
G04 #@! TD*
D13*
G04 #@! TO.C,C5*
X98050000Y-73975000D03*
X98050000Y-72425000D03*
G04 #@! TD*
D26*
G04 #@! TO.C,TP10*
X131400000Y-72830000D03*
G04 #@! TD*
D38*
G04 #@! TO.C,R39*
X120275000Y-85900000D03*
X121925000Y-85900000D03*
G04 #@! TD*
D29*
G04 #@! TO.C,D2*
X111400000Y-69550000D03*
X114700000Y-69550000D03*
G04 #@! TD*
D24*
G04 #@! TO.C,C2*
X116400000Y-69125000D03*
X116400000Y-70675000D03*
G04 #@! TD*
D40*
G04 #@! TO.C,F1*
X117025000Y-90900000D03*
X114225000Y-90900000D03*
G04 #@! TD*
D12*
G04 #@! TO.C,R1*
X108175000Y-87575000D03*
X108175000Y-85925000D03*
G04 #@! TD*
D24*
G04 #@! TO.C,C30*
X111600000Y-85925000D03*
X111600000Y-87475000D03*
G04 #@! TD*
D19*
G04 #@! TO.C,Q3*
X116937500Y-83912500D03*
X116937500Y-82012500D03*
X115062500Y-82962500D03*
G04 #@! TD*
D12*
G04 #@! TO.C,R38*
X109800000Y-87550000D03*
X109800000Y-85900000D03*
G04 #@! TD*
D29*
G04 #@! TO.C,D7*
X114850000Y-88300000D03*
X118150000Y-88300000D03*
G04 #@! TD*
D41*
G04 #@! TO.C,D13*
X113225000Y-84200000D03*
X110725000Y-84200000D03*
G04 #@! TD*
M02*
